<svg width="80" height="80" viewBox="0 0 80 80" fill="none" xmlns="http://www.w3.org/2000/svg">
<g id="noto-v1:honeybee" clip-path="url(#clip0_481_643)">
<path id="Vector" d="M72.1 43.55L78.8625 42.6875L74.6688 47.9375L72.1 43.55ZM17.1688 28.4438C16.6688 28.4438 16.1813 28.2063 15.875 27.7625C9.76879 18.7937 3.41879 21.6063 3.35629 21.6375C2.57504 22 1.64379 21.6625 1.28129 20.8813C1.10682 20.5057 1.08846 20.0764 1.23024 19.6873C1.37202 19.2983 1.66237 18.9814 2.03754 18.8063C2.12504 18.7688 10.875 14.8688 18.4563 26.0063C18.6162 26.2405 18.7091 26.5139 18.7251 26.797C18.7411 27.0801 18.6796 27.3623 18.5471 27.613C18.4147 27.8638 18.2164 28.0736 17.9735 28.22C17.7306 28.3664 17.4524 28.4438 17.1688 28.4438ZM26.9188 24.8188C26.1438 24.8188 25.4688 24.2438 25.3688 23.45C24.025 12.8625 17.4438 12.6625 17.1625 12.6563C16.3063 12.6438 15.6063 11.9438 15.6125 11.0875C15.6125 10.2312 16.3 9.5375 17.1563 9.53125C17.3125 9.53125 26.7625 9.6625 28.4688 23.05C28.575 23.9063 27.975 24.6875 27.1125 24.8C27.05 24.8188 26.9875 24.8188 26.9188 24.8188Z" fill="#424242"/>
<path id="Vector_2" d="M37.9063 9.93749C40.1563 7.91874 43.275 7.29999 46.25 8.29374C47.525 8.71249 48.6438 9.33749 49.5875 10.1562C57.4875 17.025 53.225 29.8125 49.375 40.0812C49.35 40.1437 47.6188 45.375 45.7563 45.7812C44.2375 46.1125 42.475 43.85 42.475 43.85C42.3938 43.775 40.5188 41.3625 40.3125 41.0375C36.9688 36.15 34.7375 30.7187 33.6625 24.8875C33.425 23.5937 33.3125 22.1625 33.3688 20.6687C33.3875 20.0937 33.4313 19.5125 33.5125 18.9312C33.5813 18.3875 33.675 17.8437 33.7938 17.3062C34.3813 14.7125 35.5813 12.1687 37.6625 10.1625L37.9063 9.93749Z" fill="#BDBDBD"/>
<path id="Vector_3" d="M61.8813 11.3313C65.2313 10.9375 68.4688 12.3813 70.5438 15.2C71.4375 16.4 72.05 17.6938 72.3875 19.0438C75.175 30.375 63.0688 39.2938 52.9563 46.175C52.8938 46.2188 47.9563 49.875 45.9938 49.0438C44.4 48.3688 44.2438 45.1688 44.2438 45.1688C44.2188 45.05 44.0625 41.6438 44.0813 41.2188C44.175 34.6188 45.6313 28.2313 48.4 22.2313C49.0125 20.9 49.8313 19.5188 50.8438 18.2C51.2313 17.6875 51.6438 17.1875 52.0938 16.7063C52.5063 16.2563 52.9375 15.8188 53.3938 15.4063C55.5938 13.4188 58.325 11.875 61.5125 11.3813L61.8813 11.3313Z" fill="#ECEFF1"/>
<path id="Vector_4" d="M66.0288 62.6963C73.3457 59.259 77.0428 51.7161 74.2865 45.8488C71.5302 39.9816 63.3643 38.0117 56.0474 41.449C48.7305 44.8863 45.0334 52.4292 47.7897 58.2964C50.546 64.1637 58.7119 66.1336 66.0288 62.6963Z" fill="#FCC21B"/>
<g id="Clip path group">
<mask id="mask0_481_643" style="mask-type:luminance" maskUnits="userSpaceOnUse" x="46" y="39" width="30" height="26">
<g id="notoV1Honeybee1">
<path id="Vector_5" d="M66.0288 62.6958C73.3457 59.2585 77.0428 51.7157 74.2865 45.8484C71.5302 39.9811 63.3643 38.0113 56.0474 41.4486C48.7305 44.8859 45.0334 52.4287 47.7897 58.296C50.546 64.1633 58.7119 66.1331 66.0288 62.6958Z" fill="white"/>
</g>
</mask>
<g mask="url(#mask0_481_643)">
<g id="Group">
<path id="Vector_6" d="M66.8244 65.3835C72.6917 62.6272 74.6615 54.4613 71.2242 47.1444C67.7869 39.8275 60.2441 36.1304 54.3768 38.8867C48.5095 41.643 46.5397 49.8089 49.977 57.1258C53.4143 64.4427 60.9571 68.1398 66.8244 65.3835Z" fill="#424242"/>
</g>
</g>
</g>
<g id="Clip path group_2">
<mask id="mask1_481_643" style="mask-type:luminance" maskUnits="userSpaceOnUse" x="46" y="39" width="30" height="26">
<g id="notoV1Honeybee1_2">
<path id="Vector_7" d="M66.0288 62.6958C73.3457 59.2585 77.0428 51.7157 74.2865 45.8484C71.5302 39.9811 63.3643 38.0113 56.0474 41.4486C48.7305 44.8859 45.0334 52.4287 47.7897 58.296C50.546 64.1633 58.7119 66.1331 66.0288 62.6958Z" fill="white"/>
</g>
</mask>
<g mask="url(#mask1_481_643)">
<g id="Group_2">
<path id="Vector_8" d="M61.4876 67.4165C67.3549 64.6602 69.3247 56.4943 65.8874 49.1774C62.4501 41.8605 54.9073 38.1634 49.04 40.9197C43.1727 43.676 41.2029 51.8419 44.6402 59.1588C48.0775 66.4757 55.6203 70.1728 61.4876 67.4165Z" fill="#FCC21B"/>
</g>
</g>
</g>
<g id="Clip path group_3">
<mask id="mask2_481_643" style="mask-type:luminance" maskUnits="userSpaceOnUse" x="46" y="39" width="30" height="26">
<g id="notoV1Honeybee1_3">
<path id="Vector_9" d="M66.0288 62.6958C73.3457 59.2585 77.0428 51.7157 74.2865 45.8484C71.5302 39.9811 63.3643 38.0113 56.0474 41.4486C48.7305 44.8859 45.0334 52.4287 47.7897 58.296C50.546 64.1633 58.7119 66.1331 66.0288 62.6958Z" fill="white"/>
</g>
</mask>
<g mask="url(#mask2_481_643)">
<g id="Group_3">
<path id="Vector_10" d="M55.2619 70.6459C61.1292 67.8896 63.099 59.7237 59.6617 52.4067C56.2244 45.0898 48.6816 41.3927 42.8143 44.149C36.947 46.9053 34.9772 55.0713 38.4145 62.3882C41.8518 69.7051 49.3946 73.4022 55.2619 70.6459Z" fill="#424242"/>
</g>
</g>
</g>
<g id="Clip path group_4">
<mask id="mask3_481_643" style="mask-type:luminance" maskUnits="userSpaceOnUse" x="46" y="39" width="30" height="26">
<g id="notoV1Honeybee1_4">
<path id="Vector_11" d="M66.0288 62.6958C73.3457 59.2585 77.0428 51.7157 74.2865 45.8484C71.5302 39.9811 63.3643 38.0113 56.0474 41.4486C48.7305 44.8859 45.0334 52.4287 47.7897 58.296C50.546 64.1633 58.7119 66.1331 66.0288 62.6958Z" fill="white"/>
</g>
</mask>
<g mask="url(#mask3_481_643)">
<g id="Group_4">
<path id="Vector_12" d="M49.1933 73.0962C55.0606 70.3399 57.0304 62.174 53.5931 54.8571C50.1558 47.5402 42.613 43.8431 36.7457 46.5994C30.8784 49.3557 28.9086 57.5216 32.3459 64.8385C35.7832 72.1554 43.326 75.8525 49.1933 73.0962Z" fill="#FCC21B"/>
</g>
</g>
</g>
<path id="Vector_13" d="M26.4999 61.225C24.9624 61.225 23.9999 61.0438 23.8937 61.025C23.4869 60.9444 23.1287 60.7056 22.8978 60.361C22.667 60.0165 22.5823 59.5944 22.6624 59.1875C22.7436 58.7822 22.9816 58.4255 23.3245 58.1948C23.6675 57.9642 24.0878 57.8785 24.4937 57.9563C24.5937 57.975 30.6812 59.0438 36.9312 54.8375C37.6437 54.3563 38.6187 54.5438 39.0999 55.2625C39.5812 55.9813 39.3937 56.95 38.6749 57.4313C33.9124 60.6375 29.2812 61.225 26.4999 61.225Z" fill="#424242"/>
<path id="Vector_14" d="M29.0875 67.6625C28.3437 67.6625 27.6875 67.1313 27.55 66.375C27.4 65.525 27.9625 64.7188 28.8062 64.5625C28.9062 64.5438 34.9625 63.325 39.2562 57.1438C39.3729 56.9747 39.5218 56.8304 39.6943 56.719C39.8669 56.6077 40.0598 56.5316 40.2619 56.495C40.464 56.4584 40.6713 56.4621 40.872 56.5059C41.0727 56.5496 41.2627 56.6326 41.4312 56.75C42.1375 57.2438 42.3187 58.2125 41.825 58.925C36.75 66.2375 29.6625 67.5875 29.3625 67.6375C29.275 67.6563 29.1812 67.6625 29.0875 67.6625Z" fill="#424242"/>
<path id="Vector_15" d="M43.0938 72.1687C42.857 72.1693 42.6233 72.1159 42.4102 72.0127C42.1971 71.9095 42.0103 71.7592 41.864 71.5731C41.7176 71.387 41.6156 71.17 41.5655 70.9386C41.5154 70.7072 41.5187 70.4674 41.575 70.2375C41.5938 70.15 42.9813 64.2312 41.3125 56.95C41.2663 56.7497 41.26 56.5423 41.294 56.3396C41.3281 56.1368 41.4018 55.9428 41.511 55.7687C41.6201 55.5945 41.7626 55.4436 41.9301 55.3245C42.0977 55.2055 42.2871 55.1207 42.4875 55.075C42.6878 55.0287 42.8953 55.0224 43.098 55.0565C43.3007 55.0905 43.4947 55.1643 43.6689 55.2734C43.843 55.3826 43.994 55.525 44.113 55.6926C44.232 55.8602 44.3168 56.0496 44.3625 56.25C46.2125 64.3062 44.6813 70.7125 44.6188 70.9812C44.5321 71.3202 44.3353 71.6207 44.0593 71.8356C43.7832 72.0506 43.4436 72.1677 43.0938 72.1687ZM48.9 72.125C48.825 72.125 48.75 72.1187 48.675 72.1062C48.265 72.047 47.8952 71.8275 47.6468 71.4959C47.3984 71.1643 47.2917 70.7477 47.35 70.3375C47.3625 70.2625 48.1625 64.2312 45.7813 57.1375C45.5063 56.3187 45.95 55.4312 46.7688 55.1562C47.5938 54.8812 48.475 55.325 48.75 56.1437C51.3813 63.9812 50.4875 70.5062 50.45 70.775C50.396 71.1483 50.2099 71.4898 49.9255 71.7375C49.6411 71.9853 49.2772 72.1227 48.9 72.125Z" fill="#424242"/>
<path id="Vector_16" d="M52.4062 45.8187C52.0625 45.35 52.8 43.9062 52.3875 43.525C51.9625 43.1375 50.5937 44.0187 50.1062 43.7312C49.6125 43.4375 49.7437 41.8187 49.2062 41.625C48.6687 41.4312 47.7312 42.7562 47.1625 42.6625C46.6 42.5687 46.15 41.0062 45.575 41.0062C45.0062 41.0062 44.5687 42.575 44 42.675C43.4437 42.7687 42.5125 41.4375 41.9625 41.625C41.4312 41.8062 41.5062 43.4312 40.9875 43.7062C40.4875 43.9687 39.1937 42.9812 38.725 43.325C38.2562 43.6687 38.8125 45.2 38.4187 45.6C38.0062 46.0125 36.475 45.4562 36.1437 45.9125C35.8 46.3812 36.8 47.6687 36.5437 48.1687C36.2812 48.6875 34.6562 48.6375 34.4812 49.1812C34.3062 49.7312 35.6687 50.625 35.5937 51.1875C35.5187 51.7562 33.9687 52.2625 33.9937 52.8312C34.0187 53.4062 35.6062 53.7562 35.7375 54.3125C35.8687 54.8687 34.625 55.9062 34.8687 56.4312C35.1062 56.9437 36.7062 56.6625 37.05 57.1312C37.3937 57.6 36.6562 59.0437 37.0687 59.425C37.4937 59.8125 38.8625 58.9312 39.35 59.2187C39.8437 59.5125 39.7125 61.1312 40.25 61.325C40.7875 61.5187 41.725 60.1937 42.2937 60.2875C42.8562 60.3812 43.3062 61.9437 43.8812 61.9437C44.45 61.9437 44.8875 60.375 45.4562 60.275C46.0125 60.1812 46.9437 61.5125 47.4937 61.325C48.025 61.1437 47.95 59.5187 48.4687 59.2437C48.9687 58.9812 50.2625 59.9687 50.7312 59.625C51.2 59.2812 50.6437 57.75 51.0375 57.35C51.45 56.9375 52.9812 57.4937 53.3125 57.0375C53.6562 56.5687 52.6562 55.2812 52.9125 54.7812C53.175 54.2625 54.8 54.3125 54.975 53.7687C55.15 53.2187 53.7875 52.325 53.8625 51.7625C53.9375 51.1937 55.4875 50.6875 55.4625 50.1187C55.4375 49.5437 53.85 49.1937 53.7187 48.6375C53.5875 48.0812 54.8312 47.0437 54.5875 46.5187C54.35 46 52.75 46.2875 52.4062 45.8187Z" fill="#FFB300"/>
<path id="Vector_17" d="M31.3276 55.9004C41.4028 53.2249 47.5989 43.6321 45.167 34.4744C42.7351 25.3167 32.5961 20.0618 22.5209 22.7373C12.4457 25.4128 6.24964 35.0056 8.68153 44.1633C11.1134 53.3211 21.2524 58.5759 31.3276 55.9004Z" fill="#FCC21B"/>
<path id="Vector_18" d="M28.3687 50.6313C26.5625 50.6313 25.1062 49.9875 24.8875 49.8875C24.5123 49.7123 24.2219 49.3954 24.0802 49.0064C23.9384 48.6174 23.9567 48.188 24.1312 47.8125C24.2173 47.6269 24.3391 47.4601 24.4896 47.3216C24.6402 47.1831 24.8166 47.0757 25.0088 47.0054C25.2009 46.9352 25.405 46.9035 25.6094 46.9123C25.8138 46.921 26.0145 46.9699 26.2 47.0563C26.25 47.075 28.1437 47.9063 29.7125 47.2688C30.5562 46.925 31.1812 46.2 31.625 45.05C31.699 44.8581 31.8101 44.6828 31.952 44.534C32.0939 44.3851 32.2638 44.2658 32.4519 44.1827C32.64 44.0997 32.8427 44.0546 33.0483 44.0501C33.2539 44.0455 33.4584 44.0816 33.65 44.1562C34.4562 44.4688 34.8562 45.375 34.5437 46.1813C33.775 48.1563 32.5375 49.5 30.8687 50.175C30.0062 50.5063 29.1562 50.6313 28.3687 50.6313ZM33.6312 34.8688C34.0687 34.7 34.5187 34.6813 34.9625 34.7625C35.6375 34.8875 36.2875 35.2688 36.8 35.8563C37.1125 36.225 37.3812 36.6625 37.5687 37.1625C37.7125 37.575 37.7812 37.9875 37.8 38.3938C37.8375 39.1875 37.6375 39.9313 37.2437 40.5188C36.9437 40.975 36.5312 41.3438 36.0125 41.5438C34.5062 42.1063 32.75 41.0875 32.0875 39.2438C31.425 37.4125 32.125 35.4438 33.6312 34.8688ZM20.7312 45.975C19.1375 46.2063 17.5625 44.8438 17.2312 42.9062C16.9062 40.9875 17.9375 39.2188 19.5437 38.9875C21.1375 38.7438 22.7125 40.1188 23.0312 42.05C23.3625 43.975 22.325 45.725 20.7312 45.975ZM71.9375 -53.9437L78.6937 -54.8062L74.5062 -49.5562L71.9375 -53.9437Z" fill="#424242"/>
</g>
<defs>
<clipPath id="clip0_481_643">
<rect width="80" height="80" fill="white"/>
</clipPath>
</defs>
</svg>
