<svg width="150" height="150" viewBox="0 0 150 150" fill="none" xmlns="http://www.w3.org/2000/svg">
<circle cx="75" cy="75" r="72.6562" fill="#FCB813" stroke="#BA6D06" stroke-width="4.6875"/>
<path d="M34.7607 46.832C34.7607 44.6976 35.6086 42.6506 37.1179 41.1413C38.6272 39.632 40.6742 38.7841 42.8087 38.7841H107.192C109.327 38.7841 111.374 39.632 112.883 41.1413C114.392 42.6506 115.24 44.6976 115.24 46.832V91.0957C115.24 93.2302 114.392 95.2772 112.883 96.7865C111.374 98.2958 109.327 99.1437 107.192 99.1437H79.0244V107.192H91.0964C92.1636 107.192 93.1871 107.616 93.9417 108.37C94.6964 109.125 95.1203 110.148 95.1203 111.216C95.1203 112.283 94.6964 113.306 93.9417 114.061C93.1871 114.816 92.1636 115.24 91.0964 115.24H58.9046C57.8374 115.24 56.8138 114.816 56.0592 114.061C55.3046 113.306 54.8806 112.283 54.8806 111.216C54.8806 110.148 55.3046 109.125 56.0592 108.37C56.8138 107.616 57.8374 107.192 58.9046 107.192H70.9765V99.1437H42.8087C40.6742 99.1437 38.6272 98.2958 37.1179 96.7865C35.6086 95.2772 34.7607 93.2302 34.7607 91.0957V46.832ZM107.192 91.0957V46.832H42.8087V91.0957H107.192Z" fill="black"/>
</svg>
