<svg width="90" height="90" viewBox="0 0 90 90" fill="none" xmlns="http://www.w3.org/2000/svg">
<circle cx="45" cy="45" r="45" fill="#888282"/>
<circle cx="45" cy="45" r="45" stroke="#BA6D06"/>
<path d="M75.7944 42.891C75.7944 43.4242 75.5826 43.9356 75.2056 44.3126C74.8285 44.6897 74.3172 44.9015 73.7839 44.9015H46.3071V72.3783C46.3071 72.9115 46.0953 73.4229 45.7183 73.7999C45.3412 74.177 44.8298 74.3888 44.2966 74.3888C43.7634 74.3888 43.252 74.177 42.875 73.7999C42.498 73.4229 42.2861 72.9115 42.2861 72.3783V44.9015H14.8093C14.2761 44.9015 13.7647 44.6897 13.3877 44.3126C13.0106 43.9356 12.7988 43.4242 12.7988 42.891C12.7988 42.3578 13.0106 41.8464 13.3877 41.4694C13.7647 41.0923 14.2761 40.8805 14.8093 40.8805H42.2861V13.4037C42.2861 12.8705 42.498 12.3591 42.875 11.982C43.252 11.605 43.7634 11.3932 44.2966 11.3932C44.8298 11.3932 45.3412 11.605 45.7183 11.982C46.0953 12.3591 46.3071 12.8705 46.3071 13.4037V40.8805H73.7839C74.3172 40.8805 74.8285 41.0923 75.2056 41.4694C75.5826 41.8464 75.7944 42.3578 75.7944 42.891Z" fill="white"/>
</svg>
