<svg width="90" height="90" viewBox="0 0 90 90" fill="none" xmlns="http://www.w3.org/2000/svg">
<circle cx="45" cy="45" r="42.6562" fill="#FCB813" stroke="#BA6D06" stroke-width="4.6875"/>
<path d="M23.9829 19.2594L22.919 20.2628L20.2622 22.9196L19.2588 23.9835L20.026 25.2231L23.9829 31.8369L24.5139 32.7817H30.0676L37.6262 40.2817C30.8726 47.0656 22.2803 55.6862 21.978 55.9904C19.0169 58.9496 19.0112 63.7984 22.0347 66.6197C24.9882 69.5335 29.8011 69.6091 32.6073 66.6197L32.664 66.5592L44.2966 54.8679L55.9898 66.6178L56.1655 66.7368C59.1323 69.5335 63.8507 69.5713 66.619 66.6178V66.5611H66.6757C69.5707 63.6 69.6009 58.7871 66.619 55.9885L66.5586 55.9318L56.6984 46.1283C63.3329 45.5085 68.5295 39.9057 68.6259 33.137H68.6844C68.692 33.0992 68.6844 33.0557 68.6844 33.0179V32.9594C68.8696 30.7749 68.3972 28.685 67.2672 26.8766L65.9709 24.8717L57.1708 33.6699L54.514 30.894L63.4898 21.9181L60.8915 20.8562C59.2341 20.127 57.4452 19.7444 55.6345 19.7318C48.3707 19.7318 42.407 25.6955 42.407 32.9594C42.407 33.7492 42.577 34.4352 42.7018 35.1438C41.876 35.9715 41.2562 36.6498 40.2811 37.6249L32.7811 30.1249V24.5145L31.8363 23.9835L25.2225 20.0266L23.9829 19.2594ZM55.6345 23.5111C55.8991 23.5111 56.0843 23.6661 56.3431 23.6887L49.1984 30.8335L50.4966 32.1922L55.8121 37.6835L57.1103 39.0421L64.6103 31.5421C64.6481 31.9767 64.958 32.2942 64.9051 32.7817V32.9594C64.9051 38.1634 60.661 42.4076 55.4569 42.4076C54.7634 42.4076 53.9225 42.2451 52.9777 42.0523L51.9724 41.8766L51.2638 42.5852L29.9485 63.9609H29.8881V64.0214C28.5464 65.4897 26.1976 65.5256 24.6329 63.9609V63.9023H24.5725C23.1042 62.5607 23.0683 60.2119 24.6329 58.6472C25.3491 57.9292 39.2173 43.942 46.0087 37.1525L46.7777 36.3853L46.4811 35.3214C46.3017 34.5463 46.2029 33.7548 46.1863 32.9594C46.1863 27.7553 50.4304 23.5111 55.6345 23.5111ZM24.5725 23.9835L29.0018 26.7008V28.5905L28.5899 29.0024H26.7002L23.9829 24.575L24.5725 23.9835ZM52.2086 46.9541L63.9622 58.6472V58.7058H64.0189C65.489 60.0475 65.5249 62.3963 63.9622 63.9609H63.9017V64.0214C62.5601 65.4897 60.2112 65.5256 58.6466 63.9609L46.9535 52.2111L52.2086 46.9541Z" fill="black"/>
</svg>
