<svg width="150" height="150" viewBox="0 0 150 150" fill="none" xmlns="http://www.w3.org/2000/svg">
<circle cx="75" cy="75" r="72.6562" fill="#FCB813" stroke="#BA6D06" stroke-width="4.6875"/>
<path d="M51.2663 47.8767C51.2663 50.5743 50.1947 53.1614 48.2872 55.0689C46.3797 56.9764 43.7926 58.048 41.0951 58.048C38.3975 58.048 35.8104 56.9764 33.9029 55.0689C31.9954 53.1614 30.9238 50.5743 30.9238 47.8767C30.9238 45.1792 31.9954 42.5921 33.9029 40.6846C35.8104 38.7771 38.3975 37.7055 41.0951 37.7055C43.7926 37.7055 46.3797 38.7771 48.2872 40.6846C50.1947 42.5921 51.2663 45.1792 51.2663 47.8767ZM51.2663 75C51.2663 77.6976 50.1947 80.2847 48.2872 82.1922C46.3797 84.0997 43.7926 85.1713 41.0951 85.1713C38.3975 85.1713 35.8104 84.0997 33.9029 82.1922C31.9954 80.2847 30.9238 77.6976 30.9238 75C30.9238 72.3025 31.9954 69.7154 33.9029 67.8079C35.8104 65.9004 38.3975 64.8288 41.0951 64.8288C43.7926 64.8288 46.3797 65.9004 48.2872 67.8079C50.1947 69.7154 51.2663 72.3025 51.2663 75ZM51.2663 102.123C51.2663 104.821 50.1947 107.408 48.2872 109.315C46.3797 111.223 43.7926 112.295 41.0951 112.295C38.3975 112.295 35.8104 111.223 33.9029 109.315C31.9954 107.408 30.9238 104.821 30.9238 102.123C30.9238 99.4257 31.9954 96.8386 33.9029 94.9312C35.8104 93.0237 38.3975 91.9521 41.0951 91.9521C43.7926 91.9521 46.3797 93.0237 48.2872 94.9312C50.1947 96.8386 51.2663 99.4257 51.2663 102.123Z" fill="black"/>
<path fill-rule="evenodd" clip-rule="evenodd" d="M58.0469 47.8765C58.0469 46.0781 58.7613 44.3534 60.0329 43.0818C61.3046 41.8101 63.0293 41.0957 64.8277 41.0957H112.293C114.092 41.0957 115.817 41.8101 117.088 43.0818C118.36 44.3534 119.074 46.0781 119.074 47.8765C119.074 49.6749 118.36 51.3996 117.088 52.6713C115.817 53.9429 114.092 54.6573 112.293 54.6573H64.8277C63.0293 54.6573 61.3046 53.9429 60.0329 52.6713C58.7613 51.3996 58.0469 49.6749 58.0469 47.8765ZM58.0469 74.9998C58.0469 73.2014 58.7613 71.4767 60.0329 70.2051C61.3046 68.9334 63.0293 68.219 64.8277 68.219H112.293C114.092 68.219 115.817 68.9334 117.088 70.2051C118.36 71.4767 119.074 73.2014 119.074 74.9998C119.074 76.7982 118.36 78.5229 117.088 79.7946C115.817 81.0662 114.092 81.7806 112.293 81.7806H64.8277C63.0293 81.7806 61.3046 81.0662 60.0329 79.7946C58.7613 78.5229 58.0469 76.7982 58.0469 74.9998ZM58.0469 102.123C58.0469 100.325 58.7613 98.6 60.0329 97.3283C61.3046 96.0567 63.0293 95.3423 64.8277 95.3423H112.293C114.092 95.3423 115.817 96.0567 117.088 97.3283C118.36 98.6 119.074 100.325 119.074 102.123C119.074 103.921 118.36 105.646 117.088 106.918C115.817 108.19 114.092 108.904 112.293 108.904H64.8277C63.0293 108.904 61.3046 108.19 60.0329 106.918C58.7613 105.646 58.0469 103.921 58.0469 102.123Z" fill="black"/>
</svg>
