<svg width="150" height="34" viewBox="0 0 150 34" fill="none" xmlns="http://www.w3.org/2000/svg">
<path d="M0.384 26V0.799998H4.236L15.252 19.196H13.236L24.072 0.799998H27.924L27.96 26H23.532L23.496 7.748H24.432L15.216 23.12H13.128L3.768 7.748H4.848V26H0.384ZM35.9188 33.236C34.9828 33.236 34.0468 33.08 33.1108 32.768C32.1748 32.456 31.3948 32.024 30.7708 31.472L32.5708 28.16C33.0268 28.568 33.5428 28.892 34.1188 29.132C34.6948 29.372 35.2828 29.492 35.8828 29.492C36.6988 29.492 37.3588 29.288 37.8628 28.88C38.3668 28.472 38.8348 27.788 39.2668 26.828L40.3828 24.308L40.7428 23.768L48.0148 6.776H52.3348L43.3348 27.548C42.7348 28.988 42.0628 30.128 41.3188 30.968C40.5988 31.808 39.7828 32.396 38.8708 32.732C37.9828 33.068 36.9988 33.236 35.9188 33.236ZM39.8788 26.684L31.2028 6.776H35.8828L42.9388 23.372L39.8788 26.684ZM55.5793 26V0.799998H67.3873C70.4113 0.799998 72.7153 1.4 74.2993 2.6C75.8833 3.776 76.6753 5.36 76.6753 7.352C76.6753 8.696 76.3633 9.848 75.7393 10.808C75.1153 11.744 74.2753 12.476 73.2193 13.004C72.1873 13.508 71.0593 13.76 69.8353 13.76L70.4833 12.464C71.8993 12.464 73.1713 12.728 74.2993 13.256C75.4273 13.76 76.3153 14.504 76.9633 15.488C77.6353 16.472 77.9713 17.696 77.9713 19.16C77.9713 21.32 77.1433 23 75.4873 24.2C73.8313 25.4 71.3713 26 68.1073 26H55.5793ZM60.2593 22.328H67.8193C69.5713 22.328 70.9153 22.04 71.8513 21.464C72.7873 20.888 73.2553 19.964 73.2553 18.692C73.2553 17.444 72.7873 16.532 71.8513 15.956C70.9153 15.356 69.5713 15.056 67.8193 15.056H59.8993V11.42H66.8833C68.5153 11.42 69.7633 11.132 70.6273 10.556C71.5153 9.98 71.9593 9.116 71.9593 7.964C71.9593 6.788 71.5153 5.912 70.6273 5.336C69.7633 4.76 68.5153 4.472 66.8833 4.472H60.2593V22.328ZM87.286 11.276H99.814V15.128H87.286V11.276ZM87.646 22.076H101.866V26H82.966V0.799998H101.362V4.724H87.646V22.076ZM111.403 11.276H123.931V15.128H111.403V11.276ZM111.763 22.076H125.983V26H107.083V0.799998H125.479V4.724H111.763V22.076ZM139.012 26.36C137.044 26.36 135.16 26.084 133.36 25.532C131.56 24.956 130.132 24.224 129.076 23.336L130.696 19.7C131.704 20.492 132.952 21.152 134.44 21.68C135.928 22.208 137.452 22.472 139.012 22.472C140.332 22.472 141.4 22.328 142.216 22.04C143.032 21.752 143.632 21.368 144.016 20.888C144.4 20.384 144.592 19.82 144.592 19.196C144.592 18.428 144.316 17.816 143.764 17.36C143.212 16.88 142.492 16.508 141.604 16.244C140.74 15.956 139.768 15.692 138.688 15.452C137.632 15.212 136.564 14.936 135.484 14.624C134.428 14.288 133.456 13.868 132.568 13.364C131.704 12.836 130.996 12.14 130.444 11.276C129.892 10.412 129.616 9.308 129.616 7.964C129.616 6.596 129.976 5.348 130.696 4.22C131.44 3.068 132.556 2.156 134.044 1.484C135.556 0.787998 137.464 0.439999 139.768 0.439999C141.28 0.439999 142.78 0.631999 144.268 1.016C145.756 1.4 147.052 1.952 148.156 2.672L146.68 6.308C145.552 5.636 144.388 5.144 143.188 4.832C141.988 4.496 140.836 4.328 139.732 4.328C138.436 4.328 137.38 4.484 136.564 4.796C135.772 5.108 135.184 5.516 134.8 6.02C134.44 6.524 134.26 7.1 134.26 7.748C134.26 8.516 134.524 9.14 135.052 9.62C135.604 10.076 136.312 10.436 137.176 10.7C138.064 10.964 139.048 11.228 140.128 11.492C141.208 11.732 142.276 12.008 143.332 12.32C144.412 12.632 145.384 13.04 146.248 13.544C147.136 14.048 147.844 14.732 148.372 15.596C148.924 16.46 149.2 17.552 149.2 18.872C149.2 20.216 148.828 21.464 148.084 22.616C147.364 23.744 146.248 24.656 144.736 25.352C143.224 26.024 141.316 26.36 139.012 26.36Z" fill="#4F2100"/>
<path d="M0.384 26H-3.616V30H0.384V26ZM0.384 0.799998V-3.2H-3.616V0.799998H0.384ZM4.236 0.799998L7.66775 -1.25502L6.50304 -3.2H4.236V0.799998ZM15.252 19.196V23.196H22.3097L18.6837 17.141L15.252 19.196ZM13.236 19.196L9.78948 17.1659L6.23748 23.196H13.236V19.196ZM24.072 0.799998V-3.2H21.7858L20.6255 -1.23015L24.072 0.799998ZM27.924 0.799998L31.924 0.794284L31.9183 -3.2H27.924V0.799998ZM27.96 26V30H31.9657L31.96 25.9943L27.96 26ZM23.532 26L19.532 26.0079L19.5399 30H23.532V26ZM23.496 7.748V3.748H19.4881L19.496 7.75589L23.496 7.748ZM24.432 7.748L27.8627 9.8048L31.4939 3.748H24.432V7.748ZM15.216 23.12V27.12H17.4817L18.6467 25.1768L15.216 23.12ZM13.128 23.12L9.71152 25.2003L10.8804 27.12H13.128V23.12ZM3.768 7.748V3.748H-3.35077L0.351515 9.82829L3.768 7.748ZM4.848 7.748H8.848V3.748H4.848V7.748ZM4.848 26V30H8.848V26H4.848ZM4.384 26V0.799998H-3.616V26H4.384ZM0.384 4.8H4.236V-3.2H0.384V4.8ZM0.804252 2.85502L11.8203 21.251L18.6837 17.141L7.66775 -1.25502L0.804252 2.85502ZM15.252 15.196H13.236V23.196H15.252V15.196ZM16.6825 21.2261L27.5185 2.83014L20.6255 -1.23015L9.78948 17.1659L16.6825 21.2261ZM24.072 4.8H27.924V-3.2H24.072V4.8ZM23.924 0.805712L23.96 26.0057L31.96 25.9943L31.924 0.794284L23.924 0.805712ZM27.96 22H23.532V30H27.96V22ZM27.532 25.9921L27.496 7.74011L19.496 7.75589L19.532 26.0079L27.532 25.9921ZM23.496 11.748H24.432V3.748H23.496V11.748ZM21.0013 5.6912L11.7853 21.0632L18.6467 25.1768L27.8627 9.8048L21.0013 5.6912ZM15.216 19.12H13.128V27.12H15.216V19.12ZM16.5445 21.0397L7.18449 5.6677L0.351515 9.82829L9.71152 25.2003L16.5445 21.0397ZM3.768 11.748H4.848V3.748H3.768V11.748ZM0.848 7.748V26H8.848V7.748H0.848ZM4.848 22H0.384V30H4.848V22ZM33.1108 32.768L31.8459 36.5627L31.8459 36.5627L33.1108 32.768ZM30.7708 31.472L27.2563 29.5619L25.7363 32.3588L28.1205 34.468L30.7708 31.472ZM32.5708 28.16L35.238 25.179L31.4704 21.808L29.0563 26.2499L32.5708 28.16ZM34.1188 29.132L35.6573 25.4397L35.6573 25.4397L34.1188 29.132ZM37.8628 28.88L40.3796 31.989L40.3796 31.989L37.8628 28.88ZM39.2668 26.828L42.9145 28.4695L42.9194 28.4586L42.9242 28.4477L39.2668 26.828ZM40.3828 24.308L37.0546 22.0892L36.8643 22.3746L36.7254 22.6883L40.3828 24.308ZM40.7428 23.768L44.071 25.9868L44.2753 25.6804L44.4202 25.3418L40.7428 23.768ZM48.0148 6.776V2.776H45.3758L44.3374 5.2022L48.0148 6.776ZM52.3348 6.776L56.0051 8.36625L58.4272 2.776H52.3348V6.776ZM43.3348 27.548L39.6645 25.9577L39.6533 25.9836L39.6425 26.0095L43.3348 27.548ZM41.3188 30.968L38.3245 28.3159L38.3029 28.3402L38.2818 28.3648L41.3188 30.968ZM38.8708 32.732L37.488 28.9786L37.4716 28.9847L37.4552 28.9909L38.8708 32.732ZM39.8788 26.684L36.2119 28.2821L38.6594 33.8982L42.8168 29.3984L39.8788 26.684ZM31.2028 6.776V2.776H25.0962L27.5359 8.37405L31.2028 6.776ZM35.8828 6.776L39.5639 5.21093L38.5287 2.776H35.8828V6.776ZM42.9388 23.372L45.8768 26.0864L47.6318 24.1869L46.6199 21.8069L42.9388 23.372ZM35.9188 29.236C35.4355 29.236 34.9261 29.1567 34.3757 28.9733L31.8459 36.5627C33.1676 37.0033 34.5301 37.236 35.9188 37.236V29.236ZM34.3757 28.9733C33.858 28.8007 33.5746 28.6118 33.4211 28.476L28.1205 34.468C29.215 35.4362 30.4917 36.1113 31.8459 36.5627L34.3757 28.9733ZM34.2853 33.3821L36.0853 30.0701L29.0563 26.2499L27.2563 29.5619L34.2853 33.3821ZM29.9036 31.141C30.7 31.8535 31.5993 32.4155 32.5804 32.8243L35.6573 25.4397C35.4864 25.3685 35.3536 25.2825 35.238 25.179L29.9036 31.141ZM32.5804 32.8243C33.624 33.2591 34.7336 33.492 35.8828 33.492V25.492C35.832 25.492 35.7657 25.4849 35.6573 25.4397L32.5804 32.8243ZM35.8828 33.492C37.3729 33.492 38.9957 33.1093 40.3796 31.989L35.346 25.771C35.5151 25.6341 35.6842 25.5558 35.8086 25.5174C35.9231 25.482 35.9608 25.492 35.8828 25.492V33.492ZM40.3796 31.989C41.5823 31.0153 42.3677 29.6845 42.9145 28.4695L35.6191 25.1865C35.4755 25.5056 35.361 25.6993 35.2906 25.8023C35.2179 25.9085 35.2266 25.8677 35.346 25.771L40.3796 31.989ZM42.9242 28.4477L44.0402 25.9277L36.7254 22.6883L35.6094 25.2083L42.9242 28.4477ZM43.711 26.5268L44.071 25.9868L37.4146 21.5492L37.0546 22.0892L43.711 26.5268ZM44.4202 25.3418L51.6922 8.34979L44.3374 5.2022L37.0654 22.1942L44.4202 25.3418ZM48.0148 10.776H52.3348V2.776H48.0148V10.776ZM48.6645 5.18575L39.6645 25.9577L47.0051 29.1383L56.0051 8.36625L48.6645 5.18575ZM39.6425 26.0095C39.151 27.1891 38.6865 27.9071 38.3245 28.3159L44.3132 33.6201C45.4391 32.3489 46.3186 30.7869 47.0271 29.0865L39.6425 26.0095ZM38.2818 28.3648C37.9437 28.7593 37.6753 28.9096 37.488 28.9786L40.2536 36.4854C41.8904 35.8824 43.2539 34.8567 44.3558 33.5712L38.2818 28.3648ZM37.4552 28.9909C37.0773 29.1339 36.581 29.236 35.9188 29.236V37.236C37.4166 37.236 38.8883 37.0021 40.2864 36.4731L37.4552 28.9909ZM43.5457 25.0859L34.8697 5.17794L27.5359 8.37405L36.2119 28.2821L43.5457 25.0859ZM31.2028 10.776H35.8828V2.776H31.2028V10.776ZM32.2017 8.34107L39.2577 24.9371L46.6199 21.8069L39.5639 5.21093L32.2017 8.34107ZM40.0008 20.6576L36.9408 23.9696L42.8168 29.3984L45.8768 26.0864L40.0008 20.6576ZM55.5793 26H51.5793V30H55.5793V26ZM55.5793 0.799998V-3.2H51.5793V0.799998H55.5793ZM74.2993 2.6L71.8839 5.78837L71.8993 5.80008L71.9149 5.81164L74.2993 2.6ZM75.7393 10.808L79.0675 13.0268L79.0804 13.0075L79.0931 12.988L75.7393 10.808ZM73.2193 13.004L74.9747 16.5983L74.9915 16.5901L75.0082 16.5817L73.2193 13.004ZM69.8353 13.76L66.2576 11.9711L63.3632 17.76H69.8353V13.76ZM70.4833 12.464V8.464H68.0112L66.9056 10.6751L70.4833 12.464ZM74.2993 13.256L72.6036 16.8788L72.6354 16.8937L72.6676 16.908L74.2993 13.256ZM76.9633 15.488L73.6226 17.688L73.6411 17.7161L73.6601 17.7438L76.9633 15.488ZM60.2593 22.328H56.2593V26.328H60.2593V22.328ZM71.8513 21.464L69.7549 18.0574L69.7549 18.0574L71.8513 21.464ZM71.8513 15.956L69.6926 19.3235L69.7236 19.3434L69.7549 19.3626L71.8513 15.956ZM59.8993 15.056H55.8993V19.056H59.8993V15.056ZM59.8993 11.42V7.42H55.8993V11.42H59.8993ZM70.6273 10.556L68.4505 7.20015L68.4294 7.21384L68.4085 7.2278L70.6273 10.556ZM70.6273 5.336L68.4085 8.6642L68.4294 8.67815L68.4505 8.69185L70.6273 5.336ZM60.2593 4.472V0.471998H56.2593V4.472H60.2593ZM59.5793 26V0.799998H51.5793V26H59.5793ZM55.5793 4.8H67.3873V-3.2H55.5793V4.8ZM67.3873 4.8C69.9697 4.8 71.2739 5.32627 71.8839 5.78837L76.7147 -0.588369C74.1567 -2.52627 70.8529 -3.2 67.3873 -3.2V4.8ZM71.9149 5.81164C72.4709 6.22441 72.6753 6.61132 72.6753 7.352H80.6753C80.6753 4.10868 79.2957 1.32759 76.6837 -0.611641L71.9149 5.81164ZM72.6753 7.352C72.6753 8.05923 72.5188 8.42299 72.3855 8.62805L79.0931 12.988C80.2078 11.273 80.6753 9.33277 80.6753 7.352H72.6753ZM72.4111 8.5892C72.1926 8.91689 71.8959 9.19357 71.4305 9.42629L75.0082 16.5817C76.6547 15.7584 78.038 14.5711 79.0675 13.0268L72.4111 8.5892ZM71.464 9.40973C71.0142 9.62937 70.4919 9.76 69.8353 9.76V17.76C71.6268 17.76 73.3604 17.3866 74.9747 16.5983L71.464 9.40973ZM73.413 15.5489L74.061 14.2529L66.9056 10.6751L66.2576 11.9711L73.413 15.5489ZM70.4833 16.464C71.3936 16.464 72.0746 16.6312 72.6036 16.8788L75.9951 9.63324C74.268 8.82483 72.405 8.464 70.4833 8.464V16.464ZM72.6676 16.908C73.1347 17.1167 73.4151 17.3728 73.6226 17.688L80.304 13.288C79.2155 11.6352 77.7199 10.4033 75.9311 9.60397L72.6676 16.908ZM73.6601 17.7438C73.7836 17.9246 73.9713 18.3151 73.9713 19.16H81.9713C81.9713 17.0769 81.4871 15.0194 80.2665 13.2322L73.6601 17.7438ZM73.9713 19.16C73.9713 20.1225 73.6913 20.5617 73.1402 20.961L77.8344 27.439C80.5953 25.4383 81.9713 22.5175 81.9713 19.16H73.9713ZM73.1402 20.961C72.4652 21.4501 70.9922 22 68.1073 22V30C71.7504 30 75.1974 29.3499 77.8344 27.439L73.1402 20.961ZM68.1073 22H55.5793V30H68.1073V22ZM60.2593 26.328H67.8193V18.328H60.2593V26.328ZM67.8193 26.328C69.912 26.328 72.1108 26.001 73.9477 24.8706L69.7549 18.0574C69.7579 18.0555 69.6371 18.1292 69.3032 18.2008C68.9697 18.2723 68.4863 18.328 67.8193 18.328V26.328ZM73.9477 24.8706C76.2709 23.441 77.2553 21.0951 77.2553 18.692H69.2553C69.2553 18.8409 69.2287 18.7433 69.3359 18.5316C69.3886 18.4276 69.4598 18.3246 69.5452 18.2333C69.6295 18.1432 69.7066 18.0871 69.7549 18.0574L73.9477 24.8706ZM77.2553 18.692C77.2553 16.2784 76.2453 13.9633 73.9477 12.5494L69.7549 19.3626C69.7122 19.3363 69.6387 19.2835 69.5562 19.1961C69.4725 19.1074 69.4003 19.0049 69.3455 18.8982C69.2331 18.6792 69.2553 18.5668 69.2553 18.692H77.2553ZM74.01 12.5885C72.1581 11.4014 69.9328 11.056 67.8193 11.056V19.056C68.4773 19.056 68.949 19.1133 69.2699 19.1849C69.5898 19.2563 69.7005 19.3285 69.6926 19.3235L74.01 12.5885ZM67.8193 11.056H59.8993V19.056H67.8193V11.056ZM63.8993 15.056V11.42H55.8993V15.056H63.8993ZM59.8993 15.42H66.8833V7.42H59.8993V15.42ZM66.8833 15.42C68.8893 15.42 71.0483 15.0828 72.8461 13.8842L68.4085 7.2278C68.4599 7.19354 68.4034 7.24655 68.1439 7.30643C67.8823 7.36679 67.4747 7.42 66.8833 7.42V15.42ZM72.8041 13.9118C74.9437 12.524 75.9593 10.3288 75.9593 7.964H67.9593C67.9593 8.02175 67.9505 7.87745 68.0686 7.64772C68.1939 7.40387 68.3628 7.25705 68.4505 7.20015L72.8041 13.9118ZM75.9593 7.964C75.9593 5.61072 74.9707 3.38556 72.8041 1.98015L68.4505 8.69185C68.35 8.62664 68.1802 8.47362 68.0584 8.23338C67.9455 8.01062 67.9593 7.88138 67.9593 7.964H75.9593ZM72.8461 2.0078C71.0483 0.809227 68.8893 0.471998 66.8833 0.471998V8.472C67.4747 8.472 67.8823 8.52521 68.1439 8.58556C68.4034 8.64545 68.4599 8.69846 68.4085 8.6642L72.8461 2.0078ZM66.8833 0.471998H60.2593V8.472H66.8833V0.471998ZM56.2593 4.472V22.328H64.2593V4.472H56.2593ZM87.286 11.276V7.276H83.286V11.276H87.286ZM99.814 11.276H103.814V7.276H99.814V11.276ZM99.814 15.128V19.128H103.814V15.128H99.814ZM87.286 15.128H83.286V19.128H87.286V15.128ZM87.646 22.076H83.646V26.076H87.646V22.076ZM101.866 22.076H105.866V18.076H101.866V22.076ZM101.866 26V30H105.866V26H101.866ZM82.966 26H78.966V30H82.966V26ZM82.966 0.799998V-3.2H78.966V0.799998H82.966ZM101.362 0.799998H105.362V-3.2H101.362V0.799998ZM101.362 4.724V8.724H105.362V4.724H101.362ZM87.646 4.724V0.723999H83.646V4.724H87.646ZM87.286 15.276H99.814V7.276H87.286V15.276ZM95.814 11.276V15.128H103.814V11.276H95.814ZM99.814 11.128H87.286V19.128H99.814V11.128ZM91.286 15.128V11.276H83.286V15.128H91.286ZM87.646 26.076H101.866V18.076H87.646V26.076ZM97.866 22.076V26H105.866V22.076H97.866ZM101.866 22H82.966V30H101.866V22ZM86.966 26V0.799998H78.966V26H86.966ZM82.966 4.8H101.362V-3.2H82.966V4.8ZM97.362 0.799998V4.724H105.362V0.799998H97.362ZM101.362 0.723999H87.646V8.724H101.362V0.723999ZM83.646 4.724V22.076H91.646V4.724H83.646ZM111.403 11.276V7.276H107.403V11.276H111.403ZM123.931 11.276H127.931V7.276H123.931V11.276ZM123.931 15.128V19.128H127.931V15.128H123.931ZM111.403 15.128H107.403V19.128H111.403V15.128ZM111.763 22.076H107.763V26.076H111.763V22.076ZM125.983 22.076H129.983V18.076H125.983V22.076ZM125.983 26V30H129.983V26H125.983ZM107.083 26H103.083V30H107.083V26ZM107.083 0.799998V-3.2H103.083V0.799998H107.083ZM125.479 0.799998H129.479V-3.2H125.479V0.799998ZM125.479 4.724V8.724H129.479V4.724H125.479ZM111.763 4.724V0.723999H107.763V4.724H111.763ZM111.403 15.276H123.931V7.276H111.403V15.276ZM119.931 11.276V15.128H127.931V11.276H119.931ZM123.931 11.128H111.403V19.128H123.931V11.128ZM115.403 15.128V11.276H107.403V15.128H115.403ZM111.763 26.076H125.983V18.076H111.763V26.076ZM121.983 22.076V26H129.983V22.076H121.983ZM125.983 22H107.083V30H125.983V22ZM111.083 26V0.799998H103.083V26H111.083ZM107.083 4.8H125.479V-3.2H107.083V4.8ZM121.479 0.799998V4.724H129.479V0.799998H121.479ZM125.479 0.723999H111.763V8.724H125.479V0.723999ZM107.763 4.724V22.076H115.763V4.724H107.763ZM133.36 25.532L132.141 29.3417L132.164 29.3491L132.188 29.3562L133.36 25.532ZM129.076 23.336L125.423 21.7081L124.197 24.4591L126.502 26.3974L129.076 23.336ZM130.696 19.7L133.168 16.5547L129.132 13.3835L127.043 18.0721L130.696 19.7ZM134.44 21.68L135.778 17.9103L135.778 17.9103L134.44 21.68ZM142.216 22.04L140.885 18.268L140.885 18.268L142.216 22.04ZM144.016 20.888L147.14 23.3868L147.169 23.3498L147.198 23.3122L144.016 20.888ZM143.764 17.36L141.14 20.3784L141.178 20.4116L141.217 20.4438L143.764 17.36ZM141.604 16.244L140.339 20.0387L140.402 20.0595L140.465 20.0781L141.604 16.244ZM138.688 15.452L137.802 19.3525L137.811 19.3547L137.821 19.3567L138.688 15.452ZM135.484 14.624L134.272 18.4357L134.323 18.452L134.374 18.4669L135.484 14.624ZM132.568 13.364L130.483 16.7771L130.538 16.8108L130.594 16.8427L132.568 13.364ZM130.444 11.276L127.074 13.4296L127.074 13.4296L130.444 11.276ZM130.696 4.22L127.336 2.0499L127.33 2.05886L127.325 2.06786L130.696 4.22ZM134.044 1.484L135.691 5.12948L135.704 5.12355L135.717 5.11752L134.044 1.484ZM144.268 1.016L143.269 4.88911L143.269 4.88911L144.268 1.016ZM148.156 2.672L151.863 4.17652L153.103 1.12225L150.341 -0.67844L148.156 2.672ZM146.68 6.308L144.633 9.7444L148.635 12.1283L150.387 7.81252L146.68 6.308ZM143.188 4.832L142.11 8.68385L142.146 8.69391L142.182 8.70329L143.188 4.832ZM136.564 4.796L135.136 1.05979L135.117 1.06698L135.098 1.07437L136.564 4.796ZM134.8 6.02L131.619 3.59583L131.581 3.64487L131.545 3.69504L134.8 6.02ZM135.052 9.62L132.362 12.5798L132.432 12.6435L132.505 12.7038L135.052 9.62ZM137.176 10.7L136.008 14.5254L136.022 14.5298L136.037 14.5341L137.176 10.7ZM140.128 11.492L139.179 15.3776L139.22 15.3876L139.261 15.3967L140.128 11.492ZM143.332 12.32L142.199 16.1561L142.211 16.1595L142.222 16.1629L143.332 12.32ZM146.248 13.544L144.233 16.9991L144.253 17.0111L144.274 17.0227L146.248 13.544ZM148.372 15.596L144.959 17.6818L144.98 17.7159L145.002 17.7496L148.372 15.596ZM148.084 22.616L144.724 20.4459L144.718 20.4549L144.713 20.4639L148.084 22.616ZM144.736 25.352L146.361 29.0072L146.385 28.9965L146.409 28.9855L144.736 25.352ZM139.012 22.36C137.424 22.36 135.936 22.1381 134.533 21.7078L132.188 29.3562C134.385 30.0299 136.665 30.36 139.012 30.36V22.36ZM134.58 21.7223C133.104 21.2501 132.19 20.728 131.651 20.2746L126.502 26.3974C128.075 27.72 130.017 28.6619 132.141 29.3417L134.58 21.7223ZM132.73 24.9639L134.35 21.3279L127.043 18.0721L125.423 21.7081L132.73 24.9639ZM128.225 22.8453C129.643 23.9594 131.297 24.8088 133.103 25.4497L135.778 17.9103C134.608 17.4952 133.766 17.0246 133.168 16.5547L128.225 22.8453ZM133.103 25.4497C135.015 26.1282 136.991 26.472 139.012 26.472V18.472C137.914 18.472 136.842 18.2878 135.778 17.9103L133.103 25.4497ZM139.012 26.472C140.573 26.472 142.141 26.3084 143.548 25.812L140.885 18.268C140.66 18.3476 140.092 18.472 139.012 18.472V26.472ZM143.548 25.812C144.794 25.3721 146.136 24.6419 147.14 23.3868L140.893 18.3892C141.013 18.239 141.112 18.1736 141.122 18.1669C141.127 18.1637 141.113 18.1734 141.073 18.1923C141.033 18.2112 140.972 18.2374 140.885 18.268L143.548 25.812ZM147.198 23.3122C148.104 22.1231 148.592 20.7103 148.592 19.196H140.592C140.592 19.0905 140.61 18.9504 140.662 18.7979C140.713 18.6462 140.782 18.5332 140.835 18.4638L147.198 23.3122ZM148.592 19.196C148.592 17.3339 147.857 15.5529 146.312 14.2762L141.217 20.4438C141.053 20.3088 140.869 20.0936 140.739 19.8054C140.613 19.5252 140.592 19.2976 140.592 19.196H148.592ZM146.389 14.3416C145.307 13.4009 144.039 12.7947 142.744 12.4099L140.465 20.0781C140.946 20.2213 141.117 20.3591 141.14 20.3784L146.389 14.3416ZM142.869 12.4493C141.851 12.1098 140.743 11.811 139.556 11.5473L137.821 19.3567C138.794 19.573 139.63 19.8022 140.339 20.0387L142.869 12.4493ZM139.575 11.5515C138.597 11.3292 137.603 11.0726 136.595 10.7811L134.374 18.4669C135.525 18.7994 136.668 19.0948 137.802 19.3525L139.575 11.5515ZM136.697 10.8123C135.884 10.5534 135.17 10.241 134.543 9.88526L130.594 16.8427C131.743 17.495 132.973 18.0226 134.272 18.4357L136.697 10.8123ZM134.654 9.95087C134.315 9.74379 134.044 9.48111 133.815 9.12244L127.074 13.4296C127.948 14.7989 129.093 15.9282 130.483 16.7771L134.654 9.95087ZM133.815 9.12244C133.784 9.0731 133.616 8.77771 133.616 7.964H125.616C125.616 9.83829 126.001 11.7509 127.074 13.4296L133.815 9.12244ZM133.616 7.964C133.616 7.34065 133.768 6.84235 134.068 6.37214L127.325 2.06786C126.185 3.85365 125.616 5.85135 125.616 7.964H133.616ZM134.057 6.3901C134.309 5.999 134.769 5.54597 135.691 5.12948L132.398 -2.16148C130.344 -1.23397 128.572 0.136999 127.336 2.0499L134.057 6.3901ZM135.717 5.11752C136.544 4.73705 137.834 4.44 139.768 4.44V-3.56C137.095 -3.56 134.569 -3.16105 132.372 -2.14953L135.717 5.11752ZM139.768 4.44C140.938 4.44 142.102 4.58797 143.269 4.88911L145.268 -2.85711C143.459 -3.32398 141.623 -3.56 139.768 -3.56V4.44ZM143.269 4.88911C144.404 5.1821 145.286 5.57563 145.971 6.02244L150.341 -0.67844C148.819 -1.67164 147.109 -2.38211 145.268 -2.85711L143.269 4.88911ZM144.45 1.16748L142.974 4.80348L150.387 7.81252L151.863 4.17652L144.45 1.16748ZM148.728 2.87159C147.294 2.01761 145.782 1.37324 144.195 0.960709L142.182 8.70329C142.995 8.91476 143.811 9.25439 144.633 9.7444L148.728 2.87159ZM144.267 0.980145C142.76 0.558266 141.244 0.327998 139.732 0.327998V8.328C140.428 8.328 141.217 8.43373 142.11 8.68385L144.267 0.980145ZM139.732 0.327998C138.162 0.327998 136.572 0.510587 135.136 1.05979L137.993 8.53221C138.189 8.45741 138.711 8.328 139.732 8.328V0.327998ZM135.098 1.07437C133.853 1.56505 132.572 2.34394 131.619 3.59583L137.982 8.44417C137.89 8.56491 137.816 8.61831 137.81 8.62235C137.808 8.6238 137.822 8.61343 137.859 8.59434C137.896 8.57521 137.952 8.54874 138.031 8.51763L135.098 1.07437ZM131.545 3.69504C130.678 4.91007 130.26 6.30731 130.26 7.748H138.26C138.26 7.7988 138.253 7.89743 138.213 8.0231C138.174 8.1505 138.115 8.2611 138.055 8.34495L131.545 3.69504ZM130.26 7.748C130.26 9.54647 130.931 11.2791 132.362 12.5798L137.743 6.66024C137.884 6.78871 138.037 6.98372 138.142 7.23344C138.245 7.47618 138.26 7.66778 138.26 7.748H130.26ZM132.505 12.7038C133.554 13.5708 134.767 14.1463 136.008 14.5254L138.345 6.87459C137.858 6.72575 137.654 6.58123 137.6 6.53615L132.505 12.7038ZM136.037 14.5341C136.998 14.8201 138.047 15.101 139.179 15.3776L141.078 7.6064C140.05 7.35502 139.13 7.1079 138.316 6.86585L136.037 14.5341ZM139.261 15.3967C140.252 15.617 141.231 15.8701 142.199 16.1561L144.466 8.48393C143.322 8.14588 142.165 7.847 140.996 7.58725L139.261 15.3967ZM142.222 16.1629C143.024 16.3945 143.686 16.6802 144.233 16.9991L148.264 10.0889C147.083 9.39982 145.801 8.8695 144.443 8.47714L142.222 16.1629ZM144.274 17.0227C144.577 17.1949 144.788 17.4017 144.959 17.6818L151.786 13.5102C150.901 12.0623 149.696 10.9011 148.223 10.0653L144.274 17.0227ZM145.002 17.7496C145.04 17.8094 145.2 18.0985 145.2 18.872H153.2C153.2 17.0055 152.809 15.1106 151.743 13.4424L145.002 17.7496ZM145.2 18.872C145.2 19.4297 145.06 19.9267 144.724 20.4459L151.445 24.7861C152.597 23.0013 153.2 21.0023 153.2 18.872H145.2ZM144.713 20.4639C144.496 20.8041 144.049 21.265 143.064 21.7185L146.409 28.9855C148.448 28.047 150.233 26.6839 151.456 24.7681L144.713 20.4639ZM143.112 21.6968C142.27 22.0707 140.962 22.36 139.012 22.36V30.36C141.671 30.36 144.178 29.9773 146.361 29.0072L143.112 21.6968Z" fill="#FFDE4F"/>
</svg>
