<svg width="120" height="120" viewBox="0 0 120 120" fill="none" xmlns="http://www.w3.org/2000/svg">
<g clip-path="url(#clip0_0_1013)">
<path d="M108.15 65.3248L118.293 64.0311L112.003 71.9061L108.15 65.3248ZM25.7527 42.6654C25.0027 42.6654 24.2715 42.3092 23.8121 41.6436C14.6527 28.1904 5.1277 32.4092 5.03395 32.4561C3.86207 32.9998 2.4652 32.4936 1.92145 31.3217C1.65974 30.7584 1.6322 30.1144 1.84487 29.5308C2.05755 28.9473 2.49306 28.472 3.05582 28.2092C3.18707 28.1529 16.3121 22.3029 27.684 39.0092C27.9238 39.3605 28.0632 39.7706 28.0872 40.1953C28.1112 40.62 28.0189 41.0432 27.8202 41.4193C27.6216 41.7955 27.324 42.1103 26.9597 42.3299C26.5954 42.5494 26.1781 42.6655 25.7527 42.6654ZM40.3777 37.2279C39.2152 37.2279 38.2027 36.3654 38.0527 35.1748C36.0371 19.2936 26.1652 18.9936 25.7433 18.9842C24.459 18.9654 23.4089 17.9154 23.4183 16.6311C23.4183 15.3467 24.4496 14.3061 25.734 14.2967C25.9683 14.2967 40.1433 14.4936 42.7027 34.5748C42.8621 35.8592 41.9621 37.0311 40.6683 37.1998C40.5746 37.2279 40.4808 37.2279 40.3777 37.2279Z" fill="#424242"/>
<path d="M56.8589 14.9062C60.2339 11.8781 64.912 10.95 69.3745 12.4406C71.287 13.0687 72.9652 14.0062 74.3808 15.2344C86.2308 25.5375 79.837 44.7187 74.062 60.1219C74.0245 60.2156 71.4277 68.0625 68.6339 68.6719C66.3558 69.1687 63.712 65.775 63.712 65.775C63.5902 65.6625 60.7777 62.0437 60.4683 61.5562C55.4527 54.225 52.1058 46.0781 50.4933 37.3312C50.137 35.3906 49.9683 33.2437 50.0527 31.0031C50.0808 30.1406 50.1464 29.2687 50.2683 28.3969C50.3714 27.5812 50.512 26.7656 50.6902 25.9594C51.5714 22.0687 53.3714 18.2531 56.4933 15.2437L56.8589 14.9062Z" fill="#BDBDBD"/>
<path d="M92.8215 16.9966C97.8465 16.406 102.703 18.5716 105.815 22.7997C107.156 24.5997 108.075 26.5404 108.581 28.5654C112.762 45.5622 94.6027 58.9404 79.434 69.2622C79.3402 69.3279 71.934 74.8122 68.9902 73.5654C66.5996 72.5529 66.3652 67.7529 66.3652 67.7529C66.3277 67.5747 66.0934 62.4654 66.1215 61.8279C66.2621 51.9279 68.4465 42.3466 72.5996 33.3466C73.5184 31.3497 74.7465 29.2779 76.2652 27.2997C76.8465 26.531 77.4652 25.781 78.1402 25.0591C78.759 24.3841 79.4059 23.7279 80.0902 23.1091C83.3902 20.1279 87.4871 17.8122 92.2684 17.0716L92.8215 16.9966Z" fill="#ECEFF1"/>
<path d="M99.0431 94.0448C110.018 88.8889 115.564 77.5746 111.43 68.7737C107.295 59.9728 95.0463 57.018 84.0709 62.174C73.0955 67.3299 67.5499 78.6442 71.6843 87.4451C75.8188 96.246 88.0677 99.2008 99.0431 94.0448Z" fill="#FCC21B"/>
<mask id="mask0_0_1013" style="mask-type:luminance" maskUnits="userSpaceOnUse" x="70" y="59" width="43" height="38">
<path d="M99.0431 94.0451C110.018 88.8891 115.564 77.5749 111.43 68.774C107.295 59.9731 95.0463 57.0182 84.0709 62.1742C73.0955 67.3302 67.5499 78.6444 71.6843 87.4453C75.8188 96.2462 88.0677 99.201 99.0431 94.0451Z" fill="white"/>
</mask>
<g mask="url(#mask0_0_1013)">
<path d="M100.237 98.0754C109.038 93.941 111.992 81.692 106.836 70.7167C101.681 59.7413 90.3662 54.1957 81.5653 58.3301C72.7644 62.4646 69.8096 74.7135 74.9656 85.6889C80.1215 96.6642 91.4358 102.21 100.237 98.0754Z" fill="#424242"/>
</g>
<mask id="mask1_0_1013" style="mask-type:luminance" maskUnits="userSpaceOnUse" x="70" y="59" width="43" height="38">
<path d="M99.0431 94.0451C110.018 88.8891 115.564 77.5749 111.43 68.774C107.295 59.9731 95.0463 57.0182 84.0709 62.1742C73.0955 67.3302 67.5499 78.6444 71.6843 87.4453C75.8188 96.2462 88.0677 99.201 99.0431 94.0451Z" fill="white"/>
</mask>
<g mask="url(#mask1_0_1013)">
<path d="M92.2308 101.125C101.032 96.9905 103.987 84.7415 98.8306 73.7662C93.6746 62.7908 82.3604 57.2452 73.5595 61.3796C64.7586 65.5141 61.8038 77.763 66.9597 88.7384C72.1157 99.7137 83.4299 105.259 92.2308 101.125Z" fill="#FCC21B"/>
</g>
<mask id="mask2_0_1013" style="mask-type:luminance" maskUnits="userSpaceOnUse" x="70" y="59" width="43" height="38">
<path d="M99.0431 94.0451C110.018 88.8891 115.564 77.5749 111.43 68.774C107.295 59.9731 95.0463 57.0182 84.0709 62.1742C73.0955 67.3302 67.5499 78.6444 71.6843 87.4453C75.8188 96.2462 88.0677 99.201 99.0431 94.0451Z" fill="white"/>
</mask>
<g mask="url(#mask2_0_1013)">
<path d="M82.893 105.97C91.6939 101.835 94.6487 89.5866 89.4927 78.6112C84.3368 67.6359 73.0225 62.0902 64.2216 66.2247C55.4207 70.3591 52.4659 82.608 57.6218 93.5834C62.7778 104.559 74.092 110.104 82.893 105.97Z" fill="#424242"/>
</g>
<mask id="mask3_0_1013" style="mask-type:luminance" maskUnits="userSpaceOnUse" x="70" y="59" width="43" height="38">
<path d="M99.0431 94.0451C110.018 88.8891 115.564 77.5749 111.43 68.774C107.295 59.9731 95.0463 57.0182 84.0709 62.1742C73.0955 67.3302 67.5499 78.6444 71.6843 87.4453C75.8188 96.2462 88.0677 99.201 99.0431 94.0451Z" fill="white"/>
</mask>
<g mask="url(#mask3_0_1013)">
<path d="M73.7894 109.645C82.5903 105.51 85.5452 93.2616 80.3892 82.2862C75.2332 71.3109 63.919 65.7652 55.1181 69.8997C46.3172 74.0341 43.3623 86.283 48.5183 97.2584C53.6743 108.234 64.9885 113.779 73.7894 109.645Z" fill="#FCC21B"/>
</g>
<path d="M39.7497 91.8376C37.4435 91.8376 35.9997 91.5657 35.8403 91.5376C35.2301 91.4166 34.6928 91.0584 34.3466 90.5416C34.0003 90.0248 33.8733 89.3917 33.9935 88.7813C34.1152 88.1734 34.4722 87.6382 34.9866 87.2923C35.5011 86.9464 36.1314 86.8178 36.7403 86.9344C36.8903 86.9626 46.0216 88.5657 55.3966 82.2563C56.4653 81.5344 57.9278 81.8157 58.6497 82.8938C59.3716 83.9719 59.0903 85.4251 58.0122 86.1469C50.8685 90.9563 43.9216 91.8376 39.7497 91.8376Z" fill="#424242"/>
<path d="M43.6316 101.494C42.516 101.494 41.5316 100.697 41.3254 99.5629C41.1004 98.2879 41.9441 97.0785 43.2098 96.8441C43.3598 96.816 52.4441 94.9879 58.8848 85.716C59.0597 85.4624 59.2831 85.2459 59.5419 85.0789C59.8008 84.9119 60.0901 84.7977 60.3933 84.7428C60.6964 84.6879 61.0074 84.6935 61.3084 84.7591C61.6094 84.8248 61.8945 84.9492 62.1473 85.1254C63.2066 85.866 63.4785 87.3191 62.7379 88.3879C55.1254 99.3566 44.4941 101.382 44.0441 101.457C43.9129 101.485 43.7723 101.494 43.6316 101.494Z" fill="#424242"/>
<path d="M64.6402 108.253C64.2851 108.254 63.9344 108.174 63.6148 108.019C63.2952 107.865 63.015 107.639 62.7955 107.36C62.5759 107.081 62.4228 106.755 62.3477 106.408C62.2727 106.061 62.2776 105.702 62.3621 105.357C62.3902 105.225 64.4714 96.3472 61.9683 85.4253C61.8989 85.1249 61.8895 84.8138 61.9406 84.5097C61.9917 84.2056 62.1022 83.9146 62.266 83.6534C62.4297 83.3921 62.6433 83.1657 62.8947 82.9871C63.1461 82.8086 63.4302 82.6814 63.7308 82.6128C64.0312 82.5435 64.3424 82.534 64.6465 82.5851C64.9505 82.6362 65.2415 82.7467 65.5028 82.9105C65.7641 83.0742 65.9905 83.2879 66.169 83.5392C66.3476 83.7906 66.4748 84.0747 66.5433 84.3753C69.3183 96.4597 67.0214 106.069 66.9277 106.472C66.7976 106.981 66.5024 107.431 66.0884 107.754C65.6744 108.076 65.1649 108.252 64.6402 108.253ZM73.3496 108.188C73.2371 108.188 73.1246 108.178 73.0121 108.16C72.397 108.071 71.8423 107.742 71.4697 107.244C71.0971 106.747 70.937 106.122 71.0246 105.507C71.0433 105.394 72.2433 96.3472 68.6714 85.7066C68.2589 84.4785 68.9246 83.1472 70.1527 82.7347C71.3902 82.3222 72.7121 82.9878 73.1246 84.216C77.0714 95.9722 75.7308 105.76 75.6746 106.163C75.5936 106.723 75.3144 107.235 74.8877 107.607C74.4611 107.978 73.9153 108.184 73.3496 108.188Z" fill="#424242"/>
<path d="M78.6094 68.7286C78.0938 68.0255 79.2001 65.8599 78.5813 65.288C77.9438 64.7068 75.8907 66.0286 75.1594 65.5974C74.4188 65.1568 74.6157 62.7286 73.8094 62.438C73.0032 62.1474 71.5969 64.1349 70.7438 63.9943C69.9001 63.8536 69.2251 61.5099 68.3626 61.5099C67.5094 61.5099 66.8532 63.863 66.0001 64.013C65.1657 64.1536 63.7688 62.1568 62.9438 62.438C62.1469 62.7099 62.2594 65.1474 61.4813 65.5599C60.7313 65.9536 58.7907 64.4724 58.0876 64.988C57.3844 65.5036 58.2188 67.8005 57.6282 68.4005C57.0094 69.0193 54.7126 68.1849 54.2157 68.8693C53.7001 69.5724 55.2001 71.5036 54.8157 72.2536C54.4219 73.0318 51.9844 72.9568 51.7219 73.7724C51.4594 74.5974 53.5032 75.938 53.3907 76.7818C53.2782 77.6349 50.9532 78.3943 50.9907 79.2474C51.0282 80.1099 53.4094 80.6349 53.6063 81.4693C53.8032 82.3036 51.9376 83.8599 52.3032 84.6474C52.6594 85.4161 55.0594 84.9943 55.5751 85.6974C56.0907 86.4005 54.9844 88.5661 55.6032 89.138C56.2407 89.7193 58.2938 88.3974 59.0251 88.8286C59.7657 89.2693 59.5688 91.6974 60.3751 91.988C61.1813 92.2786 62.5876 90.2911 63.4407 90.4318C64.2844 90.5724 64.9594 92.9161 65.8219 92.9161C66.6751 92.9161 67.3313 90.563 68.1844 90.413C69.0188 90.2724 70.4157 92.2693 71.2407 91.988C72.0376 91.7161 71.9251 89.2786 72.7032 88.8661C73.4532 88.4724 75.3938 89.9536 76.0969 89.438C76.8001 88.9224 75.9657 86.6255 76.5563 86.0255C77.1751 85.4068 79.4719 86.2411 79.9688 85.5568C80.4844 84.8536 78.9844 82.9224 79.3688 82.1724C79.7626 81.3943 82.2001 81.4693 82.4626 80.6536C82.7251 79.8286 80.6813 78.488 80.7938 77.6443C80.9063 76.7911 83.2313 76.0318 83.1938 75.1786C83.1563 74.3161 80.7751 73.7911 80.5782 72.9568C80.3813 72.1224 82.2469 70.5661 81.8813 69.7786C81.525 69.0005 79.1251 69.4318 78.6094 68.7286Z" fill="#FFB300"/>
<path d="M46.9911 83.8505C62.1038 79.8372 71.398 65.4481 67.7501 51.7115C64.1023 37.9749 48.8938 30.0926 33.7811 34.1059C18.6683 38.1191 9.37415 52.5083 13.022 66.2449C16.6698 79.9815 31.8783 87.8638 46.9911 83.8505Z" fill="#FCC21B"/>
<path d="M42.5528 75.9472C39.8435 75.9472 37.6591 74.9815 37.331 74.8315C36.7682 74.5688 36.3327 74.0934 36.12 73.5099C35.9073 72.9263 35.9349 72.2823 36.1966 71.719C36.3257 71.4406 36.5084 71.1904 36.7342 70.9827C36.9601 70.7749 37.2247 70.6138 37.5129 70.5084C37.8012 70.4031 38.1073 70.3556 38.4139 70.3687C38.7205 70.3817 39.0215 70.4551 39.2997 70.5847C39.3747 70.6128 42.2153 71.8596 44.5685 70.9034C45.8341 70.3878 46.7716 69.3003 47.4372 67.5753C47.5482 67.2875 47.7149 67.0244 47.9277 66.8012C48.1406 66.5779 48.3954 66.3989 48.6776 66.2744C48.9598 66.1498 49.2638 66.0822 49.5722 66.0754C49.8806 66.0686 50.1873 66.1227 50.4747 66.2346C51.6841 66.7034 52.2841 68.0628 51.8153 69.2721C50.6622 72.2346 48.806 74.2503 46.3028 75.2628C45.0091 75.7596 43.7341 75.9472 42.5528 75.9472ZM50.4466 52.3034C51.1028 52.0503 51.7778 52.0221 52.4435 52.144C53.456 52.3315 54.431 52.9034 55.1997 53.7846C55.6685 54.3378 56.0716 54.994 56.3528 55.744C56.5685 56.3628 56.6716 56.9815 56.6997 57.5909C56.756 58.7815 56.456 59.8971 55.8653 60.7784C55.4153 61.4628 54.7966 62.0159 54.0185 62.3159C51.7591 63.1597 49.1247 61.6315 48.131 58.8659C47.1372 56.119 48.1872 53.1659 50.4466 52.3034ZM31.0966 68.9628C28.706 69.3096 26.3435 67.2659 25.8466 64.3596C25.3591 61.4815 26.906 58.8284 29.3153 58.4815C31.706 58.1159 34.0685 60.1784 34.5466 63.0753C35.0435 65.9628 33.4872 68.5878 31.0966 68.9628ZM107.906 -80.9154L118.04 -82.2091L111.759 -74.3341L107.906 -80.9154Z" fill="#424242"/>
</g>
<defs>
<clipPath id="clip0_0_1013">
<rect width="120" height="120" fill="white"/>
</clipPath>
</defs>
</svg>
