<svg width="80" height="80" viewBox="0 0 80 80" fill="none" xmlns="http://www.w3.org/2000/svg">
<g clip-path="url(#clip0_0_1184)">
<path d="M72.1 43.5499L78.8625 42.6874L74.6688 47.9374L72.1 43.5499ZM17.1688 28.4436C16.6688 28.4436 16.1813 28.2061 15.875 27.7624C9.76879 18.7936 3.41879 21.6061 3.35629 21.6374C2.57504 21.9999 1.64379 21.6624 1.28129 20.8811C1.10682 20.5056 1.08846 20.0762 1.23024 19.6872C1.37202 19.2982 1.66237 18.9813 2.03754 18.8061C2.12504 18.7686 10.875 14.8686 18.4563 26.0061C18.6162 26.2404 18.7091 26.5138 18.7251 26.7969C18.7411 27.08 18.6796 27.3621 18.5471 27.6129C18.4147 27.8637 18.2164 28.0735 17.9735 28.2199C17.7306 28.3663 17.4524 28.4436 17.1688 28.4436ZM26.9188 24.8186C26.1438 24.8186 25.4688 24.2436 25.3688 23.4499C24.025 12.8624 17.4438 12.6624 17.1625 12.6561C16.3063 12.6436 15.6063 11.9436 15.6125 11.0874C15.6125 10.2311 16.3 9.53738 17.1563 9.53113C17.3125 9.53113 26.7625 9.66238 28.4688 23.0499C28.575 23.9061 27.975 24.6874 27.1125 24.7999C27.05 24.8186 26.9875 24.8186 26.9188 24.8186Z" fill="#424242"/>
<path d="M37.9063 9.93737C40.1563 7.91862 43.275 7.29987 46.25 8.29362C47.525 8.71237 48.6438 9.33737 49.5875 10.1561C57.4875 17.0249 53.225 29.8124 49.375 40.0811C49.35 40.1436 47.6188 45.3749 45.7563 45.7811C44.2375 46.1124 42.475 43.8499 42.475 43.8499C42.3938 43.7749 40.5188 41.3624 40.3125 41.0374C36.9688 36.1499 34.7375 30.7186 33.6625 24.8874C33.425 23.5936 33.3125 22.1624 33.3688 20.6686C33.3875 20.0936 33.4313 19.5124 33.5125 18.9311C33.5813 18.3874 33.675 17.8436 33.7938 17.3061C34.3813 14.7124 35.5813 12.1686 37.6625 10.1624L37.9063 9.93737Z" fill="#BDBDBD"/>
<path d="M61.8816 11.3311C65.2316 10.9373 68.4691 12.3811 70.5441 15.1998C71.4379 16.3998 72.0504 17.6936 72.3879 19.0436C75.1754 30.3748 63.0691 39.2936 52.9566 46.1748C52.8941 46.2186 47.9566 49.8748 45.9941 49.0436C44.4004 48.3686 44.2441 45.1686 44.2441 45.1686C44.2191 45.0498 44.0629 41.6436 44.0816 41.2186C44.1754 34.6186 45.6316 28.2311 48.4004 22.2311C49.0129 20.8998 49.8316 19.5186 50.8441 18.1998C51.2316 17.6873 51.6441 17.1873 52.0941 16.7061C52.5066 16.2561 52.9379 15.8186 53.3941 15.4061C55.5941 13.4186 58.3254 11.8748 61.5129 11.3811L61.8816 11.3311Z" fill="#ECEFF1"/>
<path d="M66.0287 62.6964C73.3456 59.2591 77.0427 51.7163 74.2864 45.849C71.5301 39.9818 63.3642 38.0119 56.0473 41.4492C48.7304 44.8865 45.0333 52.4293 47.7896 58.2966C50.5459 64.1639 58.7118 66.1338 66.0287 62.6964Z" fill="#FCC21B"/>
<mask id="mask0_0_1184" style="mask-type:luminance" maskUnits="userSpaceOnUse" x="46" y="39" width="30" height="26">
<path d="M66.0287 62.696C73.3456 59.2587 77.0427 51.7158 74.2864 45.8485C71.5301 39.9813 63.3642 38.0114 56.0473 41.4487C48.7304 44.886 45.0333 52.4288 47.7896 58.2961C50.5459 64.1634 58.7118 66.1333 66.0287 62.696Z" fill="white"/>
</mask>
<g mask="url(#mask0_0_1184)">
<path d="M66.8241 65.3833C72.6914 62.627 74.6613 54.4611 71.224 47.1442C67.7867 39.8273 60.2438 36.1302 54.3766 38.8865C48.5093 41.6428 46.5394 49.8087 49.9767 57.1256C53.414 64.4425 60.9569 68.1396 66.8241 65.3833Z" fill="#424242"/>
</g>
<mask id="mask1_0_1184" style="mask-type:luminance" maskUnits="userSpaceOnUse" x="46" y="39" width="30" height="26">
<path d="M66.0287 62.696C73.3456 59.2587 77.0427 51.7158 74.2864 45.8485C71.5301 39.9813 63.3642 38.0114 56.0473 41.4487C48.7304 44.886 45.0333 52.4288 47.7896 58.2961C50.5459 64.1634 58.7118 66.1333 66.0287 62.696Z" fill="white"/>
</mask>
<g mask="url(#mask1_0_1184)">
<path d="M61.4872 67.4159C67.3545 64.6596 69.3244 56.4937 65.8871 49.1768C62.4498 41.8599 54.9069 38.1628 49.0396 40.9191C43.1724 43.6754 41.2025 51.8413 44.6398 59.1582C48.0771 66.4751 55.62 70.1722 61.4872 67.4159Z" fill="#FCC21B"/>
</g>
<mask id="mask2_0_1184" style="mask-type:luminance" maskUnits="userSpaceOnUse" x="46" y="39" width="30" height="26">
<path d="M66.0287 62.696C73.3456 59.2587 77.0427 51.7158 74.2864 45.8485C71.5301 39.9813 63.3642 38.0114 56.0473 41.4487C48.7304 44.886 45.0333 52.4288 47.7896 58.2961C50.5459 64.1634 58.7118 66.1333 66.0287 62.696Z" fill="white"/>
</mask>
<g mask="url(#mask2_0_1184)">
<path d="M55.2616 70.6455C61.1289 67.8892 63.0988 59.7233 59.6615 52.4064C56.2242 45.0895 48.6813 41.3924 42.8141 44.1487C36.9468 46.905 34.9769 55.0709 38.4142 62.3878C41.8515 69.7047 49.3944 73.4018 55.2616 70.6455Z" fill="#424242"/>
</g>
<mask id="mask3_0_1184" style="mask-type:luminance" maskUnits="userSpaceOnUse" x="46" y="39" width="30" height="26">
<path d="M66.0287 62.696C73.3456 59.2587 77.0427 51.7158 74.2864 45.8485C71.5301 39.9813 63.3642 38.0114 56.0473 41.4487C48.7304 44.886 45.0333 52.4288 47.7896 58.2961C50.5459 64.1634 58.7118 66.1333 66.0287 62.696Z" fill="white"/>
</mask>
<g mask="url(#mask3_0_1184)">
<path d="M49.1933 73.0962C55.0606 70.3399 57.0304 62.174 53.5931 54.8571C50.1558 47.5402 42.613 43.8431 36.7457 46.5994C30.8784 49.3557 28.9086 57.5216 32.3459 64.8385C35.7832 72.1554 43.326 75.8525 49.1933 73.0962Z" fill="#FCC21B"/>
</g>
<path d="M26.4998 61.2245C24.9623 61.2245 23.9998 61.0432 23.8936 61.0245C23.4867 60.9438 23.1286 60.705 22.8977 60.3605C22.6668 60.016 22.5822 59.5939 22.6623 59.187C22.7435 58.7817 22.9814 58.4249 23.3244 58.1943C23.6674 57.9637 24.0876 57.8779 24.4936 57.9557C24.5936 57.9745 30.6811 59.0432 36.9311 54.837C37.6436 54.3557 38.6186 54.5432 39.0998 55.262C39.5811 55.9807 39.3936 56.9495 38.6748 57.4307C33.9123 60.637 29.2811 61.2245 26.4998 61.2245Z" fill="#424242"/>
<path d="M29.0871 67.6622C28.3434 67.6622 27.6871 67.131 27.5496 66.3747C27.3996 65.5247 27.9621 64.7185 28.8059 64.5622C28.9059 64.5435 34.9621 63.3247 39.2559 57.1435C39.3725 56.9744 39.5214 56.8301 39.694 56.7187C39.8666 56.6074 40.0594 56.5313 40.2615 56.4947C40.4636 56.4581 40.671 56.4618 40.8716 56.5055C41.0723 56.5493 41.2623 56.6323 41.4309 56.7497C42.1371 57.2435 42.3183 58.2122 41.8246 58.9247C36.7496 66.2372 29.6621 67.5872 29.3621 67.6372C29.2746 67.656 29.1809 67.6622 29.0871 67.6622Z" fill="#424242"/>
<path d="M43.0938 72.1691C42.857 72.1696 42.6233 72.1163 42.4102 72.0131C42.1971 71.9099 42.0103 71.7595 41.864 71.5734C41.7176 71.3873 41.6156 71.1704 41.5655 70.939C41.5154 70.7076 41.5187 70.4678 41.575 70.2379C41.5938 70.1504 42.9813 64.2316 41.3125 56.9504C41.2663 56.7501 41.26 56.5426 41.294 56.3399C41.3281 56.1372 41.4018 55.9432 41.511 55.769C41.6201 55.5949 41.7626 55.4439 41.9301 55.3249C42.0977 55.2059 42.2871 55.1211 42.4875 55.0754C42.6878 55.0291 42.8953 55.0228 43.098 55.0569C43.3007 55.0909 43.4947 55.1646 43.6689 55.2738C43.843 55.3829 43.994 55.5254 44.113 55.6929C44.232 55.8605 44.3168 56.0499 44.3625 56.2504C46.2125 64.3066 44.6813 70.7129 44.6188 70.9816C44.5321 71.3205 44.3353 71.6211 44.0593 71.836C43.7832 72.0509 43.4436 72.1681 43.0938 72.1691ZM48.9 72.1254C48.825 72.1254 48.75 72.1191 48.675 72.1066C48.265 72.0473 47.8952 71.8278 47.6468 71.4962C47.3984 71.1646 47.2917 70.748 47.35 70.3379C47.3625 70.2629 48.1625 64.2316 45.7813 57.1379C45.5063 56.3191 45.95 55.4316 46.7688 55.1566C47.5938 54.8816 48.475 55.3254 48.75 56.1441C51.3813 63.9816 50.4875 70.5066 50.45 70.7754C50.396 71.1486 50.2099 71.4902 49.9255 71.7379C49.6411 71.9856 49.2772 72.1231 48.9 72.1254Z" fill="#424242"/>
<path d="M52.406 45.819C52.0622 45.3502 52.7997 43.9065 52.3872 43.5252C51.9622 43.1377 50.5935 44.019 50.106 43.7315C49.6122 43.4377 49.7435 41.819 49.206 41.6252C48.6685 41.4315 47.731 42.7565 47.1622 42.6627C46.5997 42.569 46.1497 41.0065 45.5747 41.0065C45.006 41.0065 44.5685 42.5752 43.9997 42.6752C43.4435 42.769 42.5122 41.4377 41.9622 41.6252C41.431 41.8065 41.506 43.4315 40.9872 43.7065C40.4872 43.969 39.1935 42.9815 38.7247 43.3252C38.256 43.669 38.8122 45.2002 38.4185 45.6002C38.006 46.0127 36.4747 45.4565 36.1435 45.9127C35.7997 46.3815 36.7997 47.669 36.5435 48.169C36.281 48.6877 34.656 48.6377 34.481 49.1815C34.306 49.7315 35.6685 50.6252 35.5935 51.1877C35.5185 51.7565 33.9685 52.2627 33.9935 52.8315C34.0185 53.4065 35.606 53.7565 35.7372 54.3127C35.8685 54.869 34.6247 55.9065 34.8685 56.4315C35.106 56.944 36.706 56.6627 37.0497 57.1315C37.3935 57.6002 36.656 59.044 37.0685 59.4252C37.4935 59.8127 38.8622 58.9315 39.3497 59.219C39.8435 59.5127 39.7122 61.1315 40.2497 61.3252C40.7872 61.519 41.7247 60.194 42.2935 60.2877C42.856 60.3815 43.306 61.944 43.881 61.944C44.4497 61.944 44.8872 60.3752 45.456 60.2752C46.0122 60.1815 46.9435 61.5127 47.4935 61.3252C48.0247 61.144 47.9497 59.519 48.4685 59.244C48.9685 58.9815 50.2622 59.969 50.731 59.6252C51.1997 59.2815 50.6435 57.7502 51.0372 57.3502C51.4497 56.9377 52.981 57.494 53.3122 57.0377C53.656 56.569 52.656 55.2815 52.9122 54.7815C53.1747 54.2627 54.7997 54.3127 54.9747 53.769C55.1497 53.219 53.7872 52.3252 53.8622 51.7627C53.9372 51.194 55.4872 50.6877 55.4622 50.119C55.4372 49.544 53.8497 49.194 53.7185 48.6377C53.5872 48.0815 54.831 47.044 54.5872 46.519C54.3497 46.0002 52.7497 46.2877 52.406 45.819Z" fill="#FFB300"/>
<path d="M31.3277 55.9003C41.4029 53.2248 47.599 43.632 45.1671 34.4743C42.7352 25.3165 32.5962 20.0617 22.521 22.7372C12.4459 25.4127 6.24976 35.0055 8.68165 44.1632C11.1135 53.3209 21.2525 58.5758 31.3277 55.9003Z" fill="#FCC21B"/>
<path d="M28.3692 50.6314C26.563 50.6314 25.1067 49.9876 24.888 49.8876C24.5128 49.7124 24.2224 49.3955 24.0807 49.0065C23.9389 48.6175 23.9572 48.1881 24.1317 47.8126C24.2178 47.627 24.3396 47.4602 24.4901 47.3217C24.6407 47.1832 24.8171 47.0758 25.0093 47.0055C25.2014 46.9353 25.4055 46.9036 25.6099 46.9124C25.8143 46.9211 26.015 46.97 26.2005 47.0564C26.2505 47.0751 28.1442 47.9064 29.713 47.2689C30.5567 46.9251 31.1817 46.2001 31.6255 45.0501C31.6994 44.8582 31.8106 44.6829 31.9525 44.534C32.0944 44.3852 32.2643 44.2659 32.4524 44.1828C32.6405 44.0998 32.8432 44.0547 33.0488 44.0502C33.2544 44.0456 33.4588 44.0817 33.6505 44.1564C34.4567 44.4689 34.8567 45.3751 34.5442 46.1814C33.7755 48.1564 32.538 49.5001 30.8692 50.1751C30.0067 50.5064 29.1567 50.6314 28.3692 50.6314ZM33.6317 34.8689C34.0692 34.7001 34.5192 34.6814 34.963 34.7626C35.638 34.8876 36.288 35.2689 36.8005 35.8564C37.113 36.2251 37.3817 36.6626 37.5692 37.1626C37.713 37.5751 37.7817 37.9876 37.8005 38.3939C37.838 39.1876 37.638 39.9314 37.2442 40.5189C36.9442 40.9751 36.5317 41.3439 36.013 41.5439C34.5067 42.1064 32.7505 41.0876 32.088 39.2439C31.4255 37.4126 32.1255 35.4439 33.6317 34.8689ZM20.7317 45.9751C19.138 46.2064 17.563 44.8439 17.2317 42.9064C16.9067 40.9876 17.938 39.2189 19.5442 38.9876C21.138 38.7439 22.713 40.1189 23.0317 42.0501C23.363 43.9751 22.3255 45.7251 20.7317 45.9751ZM71.938 -53.9436L78.6942 -54.8062L74.5067 -49.5562L71.938 -53.9436Z" fill="#424242"/>
</g>
<defs>
<clipPath id="clip0_0_1184">
<rect width="80" height="80" fill="white"/>
</clipPath>
</defs>
</svg>
