<svg width="250" height="250" viewBox="0 0 250 250" fill="none" xmlns="http://www.w3.org/2000/svg">
<path d="M100.586 219.609C123.457 197.363 159.023 162.188 166.641 154.238C176.113 144.375 173.281 136.328 169.258 127.461C167.949 124.551 146.465 76.0352 132.656 44.7266C133.223 44.4532 138.477 40.7423 139.766 40.1758C143.867 38.3399 146.563 41.4258 148.379 45.254C149.707 48.086 180.625 137.012 188.164 157.207C189.395 160.488 192.344 164.785 190.684 168.399C188.828 172.441 181.328 174.961 177.734 177.168C173.184 179.941 168.516 182.52 163.809 185C154.512 189.902 145.039 194.492 135.937 199.746C125 206.055 113.926 212.031 102.93 218.203C102.168 218.652 101.387 219.141 100.586 219.609Z" fill="white"/>
<path d="M216.641 197.461C215.137 198.105 213.496 198.555 212.48 198.945C191.445 207.012 169.512 212.305 147.812 218.281C135.684 221.621 123.594 225.176 111.543 228.77C109.824 229.297 107.578 230.02 105.078 230.84C115.41 225.117 125.801 219.512 136.016 213.594C143.75 209.121 151.66 205.02 159.551 200.84C169.004 195.84 178.418 190.742 187.383 184.902C191.582 182.148 197.246 180.801 200.469 176.719C203.789 172.539 203.594 166.465 202.109 161.602C195.02 138.711 187.891 115.801 178.945 93.5742C174.707 83.0078 170.449 72.4414 167.207 61.5234C166.699 59.8437 166.172 57.9687 165.645 56.0156C174.336 51.0742 173.262 54.3945 177.227 63.457C183.887 78.6718 190.039 93.75 195.039 109.59C196.543 114.297 197.988 118.984 199.453 123.691C203.438 136.465 207.441 149.238 211.426 162.012C213.262 167.93 215.117 173.867 216.992 179.785C218.594 185.078 223.906 194.375 216.641 197.461Z" fill="white"/>
<path d="M33.6138 78.4372C30.1958 82.5583 22.52 91.7966 21.7388 92.7341C15.8403 99.7263 15.5474 107.695 16.5239 113.027C18.3208 122.91 41.2895 208.965 54.4536 236.855C55.8599 239.863 57.52 241.914 59.3559 243.261C69.8442 257.031 103.125 243.574 114.805 240.429C131.856 235.82 149.083 231.718 166.055 226.738C183.086 221.738 199.727 215.996 216.602 210.547C221.934 208.828 228.125 206.738 231.387 201.836C235.411 195.801 233.965 187.402 232.012 180.273C227.911 165.41 222.149 151.093 216.993 136.582C210.254 117.617 204.649 98.2419 196.934 79.6287C194.512 73.7693 192.012 67.9685 189.415 62.1872C187.344 57.5779 186.153 52.5388 183.711 48.1052C179.922 41.3083 176.426 40.2341 169.063 42.949C167.247 43.6326 164.102 45.0583 162.227 43.9255C160.801 43.0662 160.547 40.6247 160.04 39.1794C159.043 36.3474 157.852 32.949 156.133 30.449C155.489 29.5115 154.786 28.4177 154.063 27.5583C153.086 26.406 147.149 23.6326 137.325 27.7927C134.942 28.8083 105.86 46.3083 105.86 46.3083L33.6138 78.4372ZM100.586 219.609C71.8169 174.062 82.5981 96.4255 132.676 44.7263C133.243 44.4529 138.497 40.7419 139.786 40.1755C143.887 38.3396 146.583 41.4255 148.399 45.2537C149.727 48.0857 180.645 137.011 188.184 157.207C189.415 160.488 192.364 164.785 190.704 168.398C188.848 172.441 181.348 174.961 177.754 177.168C173.204 179.941 168.536 182.519 163.829 185C154.532 189.902 145.059 194.492 135.958 199.746C125.02 206.054 113.946 212.031 102.95 218.203C102.168 218.652 101.387 219.14 100.586 219.609ZM216.641 197.461C215.137 198.105 213.497 198.554 212.481 198.945C191.446 207.011 169.512 212.304 147.813 218.281C135.684 221.621 123.594 225.176 111.543 228.769C109.825 229.297 107.579 230.019 105.079 230.84C115.411 225.117 125.801 219.511 136.016 213.593C143.75 209.121 151.661 205.019 159.551 200.84C169.004 195.84 178.418 190.742 187.383 184.902C191.583 182.148 197.247 180.801 200.469 176.719C203.79 172.539 203.594 166.465 202.11 161.601C195.02 138.711 187.891 115.801 178.946 93.574C174.708 83.0076 170.45 72.4412 167.208 61.5232C166.7 59.8435 166.172 57.9685 165.645 56.0154C174.336 51.074 173.262 54.3943 177.227 63.4568C183.887 78.6716 190.04 93.7497 195.04 109.59C196.543 114.297 197.989 118.984 199.454 123.691C203.438 136.465 207.442 149.238 211.426 162.011C213.262 167.929 215.118 173.867 216.993 179.785C218.594 185.078 223.907 194.375 216.641 197.461Z" fill="#2F2F2F"/>
<path d="M88.0274 230.996L107.207 213.164C129.785 191.113 159.727 161.465 166.641 154.258C176.113 144.395 173.281 136.348 169.258 127.481C168.398 125.567 119.102 13.3595 117.91 10.84C114.219 3.10564 109.297 -0.42952 104.531 0.976729C102.93 1.44548 101.445 2.12907 100.039 2.96892C97.7344 4.35564 92.9102 8.7111 88.5156 12.9299C85.6445 15.6642 52.1484 56.0744 33.6133 78.4377C33.6133 78.4377 80.7617 223.75 82.3633 229.219C83.9648 234.707 88.0274 230.996 88.0274 230.996Z" fill="#FCC21B"/>
<path d="M98.242 68.8868C99.2967 68.0079 100.469 67.1485 101.465 66.1915C102.988 64.7071 105.879 62.1876 105.605 59.8829C105.469 58.5938 104.804 57.5782 103.789 57.0509C103.34 56.8165 102.793 56.6798 102.187 56.6602C98.5545 56.6016 94.6092 59.8438 92.0701 62.0704C90.3123 63.5938 88.3201 64.8829 86.5037 66.3087C82.656 69.336 79.4334 73.1641 75.8006 76.4649C72.4607 79.5313 69.8631 83.2618 66.8943 86.6407C63.9646 89.961 60.6834 92.9102 57.8904 96.3673C56.8748 97.6173 55.8201 98.6329 56.035 100.332C56.2498 102.012 57.5584 104.043 59.1209 104.746C61.6014 105.859 63.7889 102.656 65.3123 101.27C76.8357 90.8985 86.2889 78.8477 98.242 68.8868ZM108.437 75.2149C105.176 76.7579 101.679 80.586 100.293 81.9532C95.5857 86.5821 89.7459 90.6251 85.41 95.4884C82.7928 98.418 80.1365 101.328 77.2068 103.945C73.867 106.914 69.5506 109.863 67.2068 113.731C65.7225 116.152 65.2342 120.801 68.7498 121.797C73.1639 123.066 75.4685 116.602 78.1639 114.258C82.1482 110.781 86.6209 107.852 90.41 104.121C94.8826 99.6876 99.0037 94.922 103.476 90.4688C105.937 88.0274 114.765 82.8516 114.746 79.297C114.746 77.793 114.277 76.8555 113.301 75.7032C112.07 74.2188 110.293 74.3555 108.437 75.2149Z" fill="#2F2F2F"/>
</svg>
