<svg width="250" height="250" viewBox="0 0 250 250" fill="none" xmlns="http://www.w3.org/2000/svg">
<path d="M54.8828 78.0078L47.2266 85.8984L94.8242 130.488C94.8242 130.488 203.516 105.645 203.516 104.707C203.516 103.77 203.984 87.0508 203.984 87.0508C203.984 87.0508 202.539 85.1367 201.582 84.1211C200.625 83.1055 195.547 78.5742 195.547 78.5742L54.8828 78.0078Z" fill="#AC5811"/>
<path d="M76.6797 57.3242L79.3555 72.8516L161.797 81.582L190.41 61.2109L139.98 51.9922L76.6797 57.3242Z" fill="#8A460A"/>
<path d="M63.7895 84.4141C63.7895 84.4141 51.3481 81.6992 46.7191 75.8594C43.9848 72.4023 43.8285 67.4023 46.309 62.8516C49.7074 56.6601 59.2191 53.75 63.477 52.8711C67.7348 51.9922 90.0395 44.3555 129.239 45.5273C168.438 46.6992 207.344 55.3711 206.602 69.1601C205.86 82.9492 189.864 82.8125 189.864 82.8125L187.52 59.1797L166.192 59.4141C166.192 59.4141 142.891 56.8555 127.051 56.25C108.555 55.5664 95.1762 57.2656 95.1762 57.2656L69.3363 61.8164L63.7895 84.4141Z" fill="#E17F13"/>
<path d="M136.016 74.4141C136.602 73.8281 180.059 29.4922 180.059 29.4922C180.059 29.4922 179.434 22.9492 180.215 19.6484C181.543 14.0625 187.695 6.58203 192.988 7.03125C198.281 7.48047 213.105 23.3203 212.363 27.5781C211.621 31.8359 207.227 36.8359 202.812 38.4375C198.418 40.0586 193.867 39.6094 193.867 39.6094L157.148 76.3281L136.016 74.4141Z" fill="#AE5614"/>
<path d="M185.059 28.9062C188.32 29.668 195.781 23.3203 196.66 21.8555C197.539 20.3906 194.453 18.1836 193.438 15.6836C192.422 13.1836 192.402 11.1328 190.352 11.582C188.301 12.0312 184.785 15.8789 183.887 19.0625C182.559 23.7695 183.145 28.4766 185.059 28.9062Z" fill="#DF8116"/>
<path d="M47.6176 85.293C47.6176 85.293 31.9535 101.68 32.891 125.41C33.8481 149.141 43.5746 177.168 51.4067 191.641C59.2387 206.113 70.1567 227.012 74.434 229.863C78.7114 232.715 91.4067 241.211 121.192 241.738C156.387 242.363 172.852 233.906 176.875 230.352C180.918 226.797 190.977 211.602 200.235 187.852C209.493 164.102 216.133 143.457 215.899 121.387C215.664 99.3164 203.926 87.0898 203.926 87.0898C203.926 87.0898 174.239 103.75 124.161 102.559C74.0825 101.367 47.6176 85.293 47.6176 85.293Z" fill="#E07F14"/>
<path d="M123.145 219.961C169.434 220.781 191.68 207.598 191.68 207.598C191.68 207.598 196.27 197.598 199.023 191.035C201.875 184.18 205.664 173.438 205.664 173.438C205.664 173.438 187.676 189.57 123.066 189.844C71.2695 190.059 42.9297 172.363 42.9297 172.363C42.9297 172.363 47.5781 184.551 51.5625 192.109C57.1875 202.773 60.8008 209.062 60.8008 209.062C60.8008 209.062 83.7305 219.277 123.145 219.961Z" fill="#AC5811"/>
<path d="M98.5934 55.6445C99.0035 52.2656 97.1676 40.7422 74.0621 42.0898C49.1793 43.5352 51.0348 62.9102 52.2262 66.6406C55.1363 75.8594 60.4684 78.4375 60.7809 83.2813C61.1129 88.125 57.0699 99.4336 56.2496 119.16C55.4293 138.887 57.3629 148.086 58.027 150.82C59.277 155.938 63.027 159.219 67.0699 156.641C71.1129 154.062 69.1793 146.465 68.691 141.934C68.2027 137.402 68.5934 116.855 70.0582 109.102C71.5035 101.348 73.2809 96.3672 77.9684 97.6758C82.6559 98.9844 81.152 105.586 80.8199 111.074C80.4879 116.562 80.3317 127.07 80.9762 132.246C81.6207 137.422 84.3356 140.566 88.691 140.312C94.5309 139.98 95.8395 135.312 96.152 127.559C96.484 119.805 95.9957 114.473 97.2848 106.875C98.5738 99.2774 102.285 95.4102 105.195 93.9453C108.105 92.5 114.726 91.3672 124.746 91.6797C134.765 91.9922 142.675 92.6562 145.742 97.0117C148.808 101.367 149.785 111.875 155.429 116.074C161.093 120.273 167.539 116.074 169.648 120.605C171.757 125.137 173.047 135.801 173.203 148.242C173.359 160.684 171.914 176.836 170.937 183.789C169.961 190.742 167.578 200.586 170.781 205.605C173.261 209.473 178.691 208.672 181.113 203.828C183.535 198.984 185 188.32 186.113 176.035C187.246 163.75 187.734 124.98 188.222 120.293C188.711 115.605 192.168 105.039 197.109 89.5898C202.48 72.7734 208.593 59.2188 196.113 51.6211C189.453 47.5586 185.293 48.1641 185.293 48.1641L173.086 60.3906C173.086 60.3906 180.039 61.5234 179.98 64.1992C179.902 68.8477 150.254 72.9883 129.882 73.3203C109.511 73.6523 81.1715 69.6875 81.1715 64.5117C81.1715 59.3359 97.7731 62.2656 98.5934 55.6445Z" fill="#FFB803"/>
<path d="M182.715 54.6484C181.191 57.8516 184.629 58.4766 185.039 60.8789C185.429 63.2813 184.082 67.0313 185.683 67.4219C187.285 67.8125 193.828 65.5859 192.383 58.6328C190.937 51.6797 183.711 52.5195 182.715 54.6484ZM154.199 93.2812C152.187 93.7695 152.265 99.9609 155.078 105.586C158.183 111.816 163.301 111.895 164.492 109.824C165.683 107.754 162.422 105.586 160.254 101.758C157.07 96.0742 156.191 92.8125 154.199 93.2812ZM77.7927 72.6758C76.2302 75.2734 79.5505 79.4531 88.4177 82.0117C97.2849 84.5703 101.914 82.8125 102.148 79.5313C102.343 76.8555 94.7263 76.25 90.0193 74.9023C85.2927 73.5547 79.9412 69.082 77.7927 72.6758ZM70.7615 45.6836C68.3591 44.3555 59.9802 45.0391 59.1013 52.4609C58.4177 58.2031 65.7419 67.207 70.0388 64.5117C72.5974 62.9102 68.1247 58.2813 69.3943 54.4531C70.4294 51.3867 74.1208 47.5195 70.7615 45.6836Z" fill="white"/>
<path d="M84.6486 126.074C82.129 126.523 82.461 131.738 83.0275 133.633C83.5939 135.527 84.8048 138.574 87.7735 137.812C90.0392 137.227 89.7462 133.496 89.2579 131.309C88.7501 129.102 87.4611 125.566 84.6486 126.074ZM61.3087 144.863C58.8087 145.195 58.8868 147.734 59.629 150.859C60.1564 153.105 61.9337 155.684 64.0626 155.117C66.1915 154.551 65.7618 151.641 65.1368 149.512C64.5704 147.656 63.9259 144.512 61.3087 144.863Z" fill="#FFFCFF"/>
<path d="M174.902 191.289C172.246 191.426 172.441 194.805 172.343 198.145C172.246 201.484 172.187 203.926 174.609 203.926C177.05 203.926 176.933 199.492 176.992 197.441C177.05 195.391 177.734 191.152 174.902 191.289Z" fill="white"/>
</svg>
